<?xml version="1.0" standalone="no"?>
<!DOCTYPE svg PUBLIC "-//W3C//DTD SVG 20010904//EN"
 "http://www.w3.org/TR/2001/REC-SVG-20010904/DTD/svg10.dtd">
<svg version="1.0" xmlns="http://www.w3.org/2000/svg"
 width="16.000000pt" height="16.000000pt" viewBox="0 0 16.000000 16.000000"
 preserveAspectRatio="xMidYMid meet">
<metadata>
Created by potrace 1.11, written by Peter Selinger 2001-2013
</metadata>
<g transform="translate(0.000000,16.000000) scale(0.003200,-0.003200)"
fill="#000000" stroke="none">
<path d="M0 2500 l0 -2500 2500 0 2500 0 0 2500 0 2500 -2500 0 -2500 0 0
-2500z m3296 6 c393 -912 714 -1661 714 -1662 0 -2 -116 -4 -259 -4 l-258 0
-723 1657 c-398 912 -725 1661 -727 1666 -2 4 118 6 267 5 l272 -3 714 -1659z
m-1044 -91 c5 -5 -683 -1527 -705 -1562 -12 -19 -561 -19 -554 -1 3 7 154 335
337 728 183 393 345 743 361 778 l28 62 264 0 c145 0 266 -2 269 -5z"/>
</g>
</svg>
