<svg width="469" height="245" viewBox="0 0 469 245" xmlns="http://www.w3.org/2000/svg"><title>Image 2</title><g fill="none" fill-rule="evenodd"><path fill="#F9F9F9" d="M0 0h469.413v245H0z"/><g fill="#1C4996"><path d="M157.285 101.39c1.854 0 3.54.275 5.062.824 1.52.55 2.82 1.314 3.9 2.295 1.082.98 1.918 2.164 2.512 3.55.594 1.386.89 2.916.89 4.59 0 1.44-.206 2.772-.62 3.996-.415 1.224-.977 2.39-1.688 3.496-.71 1.108-1.534 2.183-2.47 3.227-.937 1.043-1.926 2.096-2.97 3.158l-8.316 8.505c.918-.252 1.826-.46 2.726-.62.9-.163 1.746-.244 2.538-.244h8.803c.81 0 1.444.224 1.903.674.46.45.688 1.044.688 1.782V141h-27.16v-2.43c0-.468.097-.976.296-1.525.198-.55.53-1.05 1-1.5l11.61-11.636c.99-.99 1.86-1.94 2.618-2.85.756-.91 1.385-1.8 1.89-2.673.504-.873.88-1.76 1.134-2.66.252-.9.378-1.844.378-2.834 0-1.746-.45-3.073-1.35-3.983-.9-.91-2.17-1.363-3.807-1.363-.72 0-1.382.103-1.985.31-.603.208-1.143.49-1.62.85-.477.36-.886.784-1.228 1.27-.343.486-.594 1.017-.756 1.593-.325.9-.76 1.498-1.31 1.795-.55.298-1.327.365-2.335.203l-3.943-.702c.288-1.908.827-3.582 1.62-5.022.792-1.44 1.78-2.637 2.97-3.59 1.188-.955 2.546-1.67 4.077-2.148 1.53-.477 3.176-.715 4.94-.715zm41.443 24.652h4.536v4.212c0 .396-.13.733-.392 1.013-.26.28-.625.418-1.093.418h-3.052V141h-6.48v-9.315h-16.173c-.47 0-.896-.144-1.283-.432-.387-.288-.625-.666-.715-1.134l-.783-3.727 18.36-24.597h7.074v24.246zm-6.48-11.664c0-.612.017-1.26.054-1.944.036-.684.098-1.404.19-2.16l-11.314 15.768h11.07v-11.664zM256.45 141h-8.154v-16.875h-17.253V141h-8.154v-39.177h8.153v16.632h17.253v-16.632h8.154V141zm17.008-14.93V141h-8.1v-39.177h12.312c2.736 0 5.075.283 7.02.85 1.944.568 3.536 1.355 4.78 2.363 1.24 1.008 2.15 2.21 2.726 3.605.576 1.396.864 2.93.864 4.604 0 1.296-.185 2.524-.554 3.685-.37 1.16-.904 2.218-1.606 3.172-.703.954-1.566 1.8-2.592 2.538-1.027.738-2.205 1.332-3.537 1.782.523.288 1.013.634 1.472 1.04.46.405.868.886 1.23 1.444L296.596 141h-7.317c-1.37 0-2.358-.522-2.97-1.566l-7.452-12.015c-.307-.47-.644-.81-1.013-1.027-.37-.216-.913-.324-1.633-.324h-2.754zm0-5.698h4.158c1.314 0 2.447-.166 3.402-.5.954-.333 1.736-.79 2.35-1.377.61-.585 1.06-1.273 1.35-2.065.287-.792.43-1.656.43-2.592 0-1.854-.616-3.294-1.85-4.32-1.232-1.026-3.108-1.54-5.628-1.54h-4.212v12.394zm48.895-11.043c-.253.413-.51.714-.77.904-.26.19-.598.283-1.012.283-.396 0-.823-.14-1.282-.418-.46-.28-.994-.582-1.606-.906-.613-.324-1.314-.625-2.106-.905-.793-.28-1.72-.42-2.78-.42-1.874 0-3.277.42-4.213 1.257-.937.837-1.404 1.93-1.404 3.28 0 .864.255 1.58.768 2.147.513.567 1.188 1.057 2.025 1.47.837.415 1.786.784 2.85 1.108 1.06.324 2.15.68 3.266 1.067 1.115.386 2.203.84 3.266 1.362 1.062.522 2.01 1.18 2.848 1.97.837.793 1.512 1.76 2.025 2.904.512 1.143.77 2.533.77 4.17 0 1.783-.312 3.452-.933 5.01-.62 1.557-1.516 2.915-2.686 4.077-1.17 1.16-2.614 2.074-4.333 2.74-1.72.666-3.667 1-5.845 1-1.243 0-2.48-.127-3.713-.38-1.234-.25-2.422-.602-3.565-1.052-1.143-.45-2.218-.99-3.226-1.62-1.01-.63-1.89-1.33-2.647-2.105l2.376-3.834c.197-.287.457-.525.782-.714.324-.19.665-.284 1.026-.284.486 0 .998.18 1.54.54.54.36 1.16.756 1.862 1.188.702.432 1.516.828 2.443 1.188s2.038.54 3.335.54c1.89 0 3.352-.432 4.387-1.296 1.035-.864 1.553-2.15 1.553-3.86 0-.99-.257-1.792-.77-2.404-.513-.612-1.183-1.125-2.01-1.54-.83-.413-1.774-.768-2.836-1.065-1.063-.298-2.15-.626-3.267-.986s-2.205-.792-3.267-1.296c-1.063-.503-2.007-1.17-2.835-1.997-.83-.828-1.5-1.854-2.012-3.078-.512-1.224-.768-2.745-.768-4.563 0-1.458.287-2.87.864-4.24.576-1.367 1.42-2.582 2.538-3.644 1.116-1.062 2.488-1.917 4.117-2.565 1.63-.648 3.497-.972 5.604-.972 2.358 0 4.54.365 6.547 1.095 2.008.73 3.704 1.74 5.09 3.037l-1.997 3.807zM161.236 87.32c-.888.648-1.834 1.122-2.838 1.422-1.004.3-2.066.45-3.186.45-1.432 0-2.728-.222-3.888-.666-1.16-.444-2.152-1.062-2.976-1.854-.824-.792-1.46-1.732-1.908-2.82-.448-1.088-.672-2.276-.672-3.564 0-1.304.214-2.5.642-3.588.428-1.088 1.038-2.024 1.83-2.808.792-.784 1.75-1.396 2.874-1.836 1.124-.44 2.382-.66 3.774-.66.72 0 1.392.058 2.016.174.624.116 1.2.276 1.728.48.528.204 1.012.446 1.452.726.44.28.84.588 1.2.924l-1.044 1.608c-.16.256-.368.412-.624.468-.256.056-.536-.008-.84-.192-.288-.176-.57-.334-.846-.474-.276-.14-.57-.262-.882-.366-.312-.104-.652-.184-1.02-.24-.368-.056-.792-.084-1.272-.084-.808 0-1.54.14-2.196.42-.656.28-1.214.676-1.674 1.188-.46.512-.814 1.128-1.062 1.848-.248.72-.372 1.524-.372 2.412 0 .96.136 1.818.408 2.574.272.756.656 1.394 1.152 1.914.496.52 1.09.916 1.782 1.188.692.272 1.462.408 2.31.408.576 0 1.09-.058 1.542-.174.452-.116.894-.274 1.326-.474v-2.928h-1.968c-.232 0-.414-.062-.546-.186-.132-.124-.198-.282-.198-.474v-2.004h5.976v7.188zm16.748-15.732v2.82h-7.464v4.476h5.808v2.724h-5.808v4.572h7.464V89h-11.088V71.588h11.088zm17.732 0v2.904h-5.088V89h-3.612V74.492h-5.088v-2.904h13.788zM222.72 89h-2.796c-.312 0-.566-.074-.762-.222-.196-.148-.342-.338-.438-.57l-1.176-3.324h-6.936l-1.176 3.324c-.08.2-.22.382-.42.546-.2.164-.452.246-.756.246h-2.82l6.804-17.412h3.684L222.72 89zm-11.232-6.612h5.184l-1.884-5.328c-.112-.28-.23-.608-.354-.984-.124-.376-.246-.78-.366-1.212-.112.44-.228.85-.348 1.23-.12.38-.236.71-.348.99l-1.884 5.304zm29.368.372c0 .976-.12 1.858-.36 2.646-.24.788-.602 1.464-1.086 2.028-.484.564-1.09.998-1.818 1.302-.728.304-1.576.456-2.544.456-.44 0-.874-.026-1.302-.078-.428-.052-.878-.134-1.35-.246l.192-2.112c.024-.192.1-.346.228-.462.128-.116.312-.174.552-.174.136 0 .31.024.522.072.212.048.474.072.786.072.432 0 .808-.06 1.128-.18.32-.12.588-.316.804-.588.216-.272.378-.626.486-1.062.108-.436.162-.966.162-1.59V71.588h3.6V82.76zm23.024-2.472c0 1.272-.214 2.452-.642 3.54-.428 1.088-1.032 2.028-1.812 2.82-.78.792-1.718 1.414-2.814 1.866-1.096.452-2.312.678-3.648.678-1.336 0-2.552-.226-3.648-.678-1.096-.452-2.036-1.074-2.82-1.866-.784-.792-1.39-1.732-1.818-2.82-.428-1.088-.642-2.268-.642-3.54 0-1.272.214-2.45.642-3.534.428-1.084 1.034-2.022 1.818-2.814.784-.792 1.724-1.414 2.82-1.866 1.096-.452 2.312-.678 3.648-.678 1.336 0 2.552.226 3.648.678 1.096.452 2.034 1.076 2.814 1.872.78.796 1.384 1.736 1.812 2.82.428 1.084.642 2.258.642 3.522zm-3.684 0c0-.912-.12-1.73-.36-2.454-.24-.724-.586-1.34-1.038-1.848-.452-.508-1-.896-1.644-1.164-.644-.268-1.374-.402-2.19-.402-.816 0-1.548.134-2.196.402-.648.268-1.198.656-1.65 1.164-.452.508-.798 1.124-1.038 1.848s-.36 1.542-.36 2.454c0 .92.12 1.742.36 2.466.24.724.586 1.338 1.038 1.842.452.504 1.002.89 1.65 1.158.648.268 1.38.402 2.196.402.816 0 1.546-.134 2.19-.402.644-.268 1.192-.654 1.644-1.158.452-.504.798-1.118 1.038-1.842s.36-1.546.36-2.466zM269.24 89V71.588h6.18c1.168 0 2.166.11 2.994.33.828.22 1.504.532 2.028.936s.906.894 1.146 1.47c.24.576.36 1.22.36 1.932 0 .4-.058.784-.174 1.152-.116.368-.296.714-.54 1.038-.244.324-.558.618-.942.882-.384.264-.84.488-1.368.672 2.32.544 3.48 1.82 3.48 3.828 0 .736-.142 1.42-.426 2.052-.284.632-.698 1.18-1.242 1.644-.544.464-1.214.826-2.01 1.086-.796.26-1.71.39-2.742.39h-6.744zm3.6-7.524v4.764h3.084c.576 0 1.05-.07 1.422-.21.372-.14.67-.326.894-.558.224-.232.38-.498.468-.798.088-.3.132-.61.132-.93 0-.352-.052-.668-.156-.948-.104-.28-.272-.518-.504-.714-.232-.196-.534-.346-.906-.45-.372-.104-.83-.156-1.374-.156h-3.06zm0-2.448h2.364c.504 0 .952-.042 1.344-.126.392-.084.72-.218.984-.402.264-.184.466-.426.606-.726.14-.3.21-.662.21-1.086 0-.432-.058-.8-.174-1.104-.116-.304-.294-.548-.534-.732-.24-.184-.544-.318-.912-.402-.368-.084-.804-.126-1.308-.126h-2.58v4.704zM299.928 89h-3.624V71.588h3.624V89zm8.264-17.412c.152 0 .282.006.39.018.108.012.206.04.294.084.088.044.172.102.252.174.08.072.168.168.264.288l8.736 11.1c-.032-.304-.056-.6-.072-.888-.016-.288-.024-.56-.024-.816v-9.96h3.18V89h-1.86c-.28 0-.516-.046-.708-.138-.192-.092-.38-.25-.564-.474l-8.676-11.028c.024.28.042.554.054.822.012.268.018.518.018.75V89h-3.18V71.588h1.896zM161.034 173.32c-.888.648-1.834 1.122-2.838 1.422-1.004.3-2.066.45-3.186.45-1.432 0-2.728-.222-3.888-.666-1.16-.444-2.152-1.062-2.976-1.854-.824-.792-1.46-1.732-1.908-2.82-.448-1.088-.672-2.276-.672-3.564 0-1.304.214-2.5.642-3.588.428-1.088 1.038-2.024 1.83-2.808.792-.784 1.75-1.396 2.874-1.836 1.124-.44 2.382-.66 3.774-.66.72 0 1.392.058 2.016.174.624.116 1.2.276 1.728.48.528.204 1.012.446 1.452.726.44.28.84.588 1.2.924l-1.044 1.608c-.16.256-.368.412-.624.468-.256.056-.536-.008-.84-.192-.288-.176-.57-.334-.846-.474-.276-.14-.57-.262-.882-.366-.312-.104-.652-.184-1.02-.24-.368-.056-.792-.084-1.272-.084-.808 0-1.54.14-2.196.42-.656.28-1.214.676-1.674 1.188-.46.512-.814 1.128-1.062 1.848-.248.72-.372 1.524-.372 2.412 0 .96.136 1.818.408 2.574.272.756.656 1.394 1.152 1.914.496.52 1.09.916 1.782 1.188.692.272 1.462.408 2.31.408.576 0 1.09-.058 1.542-.174.452-.116.894-.274 1.326-.474v-2.928h-1.968c-.232 0-.414-.062-.546-.186-.132-.124-.198-.282-.198-.474v-2.004h5.976v7.188zm11.788-1.2c.584 0 1.108-.098 1.572-.294.464-.196.856-.474 1.176-.834.32-.36.564-.796.732-1.308.168-.512.252-1.088.252-1.728v-10.368h3.6v10.368c0 1.056-.17 2.026-.51 2.91-.34.884-.826 1.646-1.458 2.286-.632.64-1.4 1.14-2.304 1.5-.904.36-1.924.54-3.06.54-1.136 0-2.158-.18-3.066-.54-.908-.36-1.678-.86-2.31-1.5-.632-.64-1.118-1.402-1.458-2.286-.34-.884-.51-1.854-.51-2.91v-10.368h3.6v10.368c0 .64.084 1.216.252 1.728.168.512.412.948.732 1.308.32.36.712.638 1.176.834.464.196.992.294 1.584.294zm27.28 2.88h-2.796c-.312 0-.566-.074-.762-.222-.196-.148-.342-.338-.438-.57l-1.176-3.324h-6.936l-1.176 3.324c-.08.2-.22.382-.42.546-.2.164-.452.246-.756.246h-2.82l6.804-17.412h3.684L200.102 175zm-11.232-6.612h5.184l-1.884-5.328c-.112-.28-.23-.608-.354-.984-.124-.376-.246-.78-.366-1.212-.112.44-.228.85-.348 1.23-.12.38-.236.71-.348.99l-1.884 5.304zm18.16-.024V175h-3.6v-17.412h5.472c1.216 0 2.256.126 3.12.378.864.252 1.572.602 2.124 1.05.552.448.956.982 1.212 1.602.256.62.384 1.302.384 2.046 0 .576-.082 1.122-.246 1.638-.164.516-.402.986-.714 1.41-.312.424-.696.8-1.152 1.128-.456.328-.98.592-1.572.792.232.128.45.282.654.462.204.18.386.394.546.642l4.056 6.264h-3.252c-.608 0-1.048-.232-1.32-.696l-3.312-5.34c-.136-.208-.286-.36-.45-.456-.164-.096-.406-.144-.726-.144h-1.224zm0-2.532h1.848c.584 0 1.088-.074 1.512-.222.424-.148.772-.352 1.044-.612s.472-.566.6-.918c.128-.352.192-.736.192-1.152 0-.824-.274-1.464-.822-1.92-.548-.456-1.382-.684-2.502-.684h-1.872v5.508zM235.978 175h-2.796c-.312 0-.566-.074-.762-.222-.196-.148-.342-.338-.438-.57l-1.176-3.324h-6.936l-1.176 3.324c-.08.2-.22.382-.42.546-.2.164-.452.246-.756.246h-2.82l6.804-17.412h3.684L235.978 175zm-11.232-6.612h5.184l-1.884-5.328c-.112-.28-.23-.608-.354-.984-.124-.376-.246-.78-.366-1.212-.112.44-.228.85-.348 1.23-.12.38-.236.71-.348.99l-1.884 5.304zm16.456-10.8c.152 0 .282.006.39.018.108.012.206.04.294.084.088.044.172.102.252.174.08.072.168.168.264.288l8.736 11.1c-.032-.304-.056-.6-.072-.888-.016-.288-.024-.56-.024-.816v-9.96h3.18V175h-1.86c-.28 0-.516-.046-.708-.138-.192-.092-.38-.25-.564-.474l-8.676-11.028c.024.28.042.554.054.822.012.268.018.518.018.75V175h-3.18v-17.412h1.896zm30.712 0v2.904h-5.088V175h-3.612v-14.508h-5.088v-2.904h13.788zm14.98 0v2.82h-7.464v4.476h5.808v2.724h-5.808v4.572h7.464V175h-11.088v-17.412h11.088zm15.496 0v2.82h-7.464v4.476h5.808v2.724h-5.808v4.572h7.464V175h-11.088v-17.412h11.088zm20.02 8.7c0 1.272-.214 2.442-.642 3.51-.428 1.068-1.032 1.986-1.812 2.754s-1.718 1.368-2.814 1.8c-1.096.432-2.312.648-3.648.648h-6.696v-17.412h6.696c1.336 0 2.552.216 3.648.648 1.096.432 2.034 1.034 2.814 1.806.78.772 1.384 1.69 1.812 2.754.428 1.064.642 2.228.642 3.492zm-3.696 0c0-.912-.12-1.732-.36-2.46s-.584-1.344-1.032-1.848c-.448-.504-.994-.892-1.638-1.164-.644-.272-1.374-.408-2.19-.408h-3.072v11.772h3.072c.816 0 1.546-.134 2.19-.402.644-.268 1.19-.656 1.638-1.164.448-.508.792-1.126 1.032-1.854.24-.728.36-1.552.36-2.472z"/></g></g></svg>