<svg width="470" height="245" viewBox="0 0 470 245" xmlns="http://www.w3.org/2000/svg"><title>Image 1</title><g fill="none" fill-rule="evenodd"><path fill="#F9F9F9" d="M.587 0H470v245H.587z"/><g fill="#1C4996"><path d="M169.684 100.823v3.186c0 .935-.104 1.69-.31 2.267-.208.576-.41 1.062-.608 1.458l-14.256 29.78c-.36.685-.846 1.27-1.458 1.756-.613.487-1.44.73-2.484.73h-5.4l14.607-29.08c.36-.683.728-1.304 1.107-1.862.378-.558.8-1.09 1.27-1.593h-18.064c-.433 0-.824-.17-1.175-.513-.35-.342-.526-.73-.526-1.16v-4.97h27.297zm30.963 3.132c0 .522-.077.994-.23 1.418-.153.423-.405.79-.756 1.107-.35.315-.8.557-1.35.73-.548.17-1.218.255-2.01.255h-10.125l-1.296 7.398c.81-.144 1.59-.256 2.348-.337.756-.082 1.484-.122 2.187-.122 2.052 0 3.865.31 5.44.932 1.575.62 2.898 1.47 3.97 2.55 1.07 1.08 1.875 2.35 2.416 3.808.54 1.458.81 3.024.81 4.698 0 2.088-.368 3.99-1.106 5.71-.74 1.72-1.76 3.195-3.065 4.43-1.306 1.232-2.863 2.19-4.672 2.874-1.81.684-3.784 1.026-5.926 1.026-1.243 0-2.43-.13-3.564-.39-1.135-.263-2.192-.613-3.173-1.054-.98-.442-1.894-.95-2.74-1.526-.847-.576-1.602-1.18-2.268-1.81l2.295-3.13c.486-.667 1.115-1 1.89-1 .486 0 .962.144 1.43.432.47.288 1 .607 1.594.96.594.35 1.286.67 2.08.957.79.29 1.753.433 2.888.433 1.17 0 2.186-.193 3.05-.58.865-.388 1.58-.918 2.147-1.593.568-.676.99-1.476 1.27-2.403.28-.928.42-1.922.42-2.984 0-2.034-.582-3.604-1.743-4.71-1.16-1.11-2.848-1.662-5.062-1.662-1.82 0-3.645.343-5.48 1.027l-4.618-1.296 3.294-19.277h19.657v3.132zm8.364 31.644c0-.54.1-1.045.297-1.513.2-.468.482-.873.85-1.215.37-.342.81-.612 1.324-.81.514-.198 1.085-.297 1.716-.297.738 0 1.38.13 1.93.392.55.26 1.003.607 1.363 1.04.36.43.63.94.81 1.525.18.585.27 1.2.27 1.85 0 .88-.135 1.812-.406 2.794-.27.98-.674 1.966-1.215 2.956-.54.99-1.202 1.957-1.985 2.903-.783.945-1.687 1.804-2.714 2.578l-1.295-1.16c-.198-.163-.337-.325-.418-.487-.08-.162-.122-.36-.122-.594 0-.162.06-.337.176-.526.118-.19.257-.365.42-.527l.728-.797c.29-.316.572-.666.85-1.053.28-.388.54-.815.784-1.283.243-.468.427-.963.553-1.485-.594-.018-1.13-.144-1.606-.378-.478-.234-.887-.54-1.23-.918-.342-.378-.607-.823-.796-1.336-.19-.514-.284-1.067-.284-1.66zm42.87-15.202c0 3.42-.368 6.39-1.107 8.91-.738 2.52-1.754 4.603-3.05 6.25-1.297 1.648-2.83 2.87-4.604 3.673-1.774.802-3.686 1.202-5.74 1.202-2.05 0-3.958-.4-5.723-1.2-1.764-.803-3.284-2.026-4.563-3.674-1.278-1.647-2.28-3.73-3.01-6.25s-1.094-5.49-1.094-8.91.365-6.385 1.094-8.897c.73-2.51 1.732-4.588 3.01-6.236 1.28-1.647 2.8-2.87 4.563-3.67 1.765-.803 3.672-1.203 5.724-1.203 2.054 0 3.966.4 5.74 1.202 1.772.802 3.306 2.025 4.602 3.672 1.297 1.648 2.313 3.726 3.05 6.238.74 2.51 1.108 5.476 1.108 8.896zm-7.695 0c0-2.772-.193-5.058-.58-6.858-.387-1.8-.895-3.222-1.526-4.266-.63-1.044-1.355-1.773-2.174-2.187-.82-.414-1.66-.62-2.525-.62-.863 0-1.695.206-2.496.62-.8.414-1.512 1.143-2.133 2.187-.62 1.044-1.12 2.466-1.497 4.266-.38 1.8-.567 4.086-.567 6.858 0 2.79.188 5.085.567 6.885.378 1.8.877 3.222 1.498 4.266.622 1.043 1.333 1.772 2.134 2.186.8.414 1.633.62 2.498.62.864 0 1.705-.206 2.524-.62.82-.414 1.543-1.143 2.174-2.187.63-1.045 1.138-2.467 1.525-4.267.387-1.8.58-4.095.58-6.885zm41.115 0c0 3.42-.368 6.39-1.107 8.91-.738 2.52-1.754 4.603-3.05 6.25-1.297 1.648-2.83 2.87-4.604 3.673-1.774.802-3.686 1.202-5.74 1.202-2.05 0-3.958-.4-5.722-1.2-1.765-.803-3.285-2.026-4.563-3.674-1.28-1.647-2.282-3.73-3.01-6.25-.73-2.52-1.094-5.49-1.094-8.91s.365-6.385 1.094-8.897c.73-2.51 1.732-4.588 3.01-6.236 1.28-1.647 2.8-2.87 4.564-3.67 1.764-.803 3.67-1.203 5.724-1.203 2.052 0 3.964.4 5.737 1.202 1.772.802 3.306 2.025 4.602 3.672 1.297 1.648 2.313 3.726 3.052 6.238.738 2.51 1.107 5.476 1.107 8.896zm-7.695 0c0-2.772-.193-5.058-.58-6.858-.387-1.8-.895-3.222-1.525-4.266-.63-1.044-1.355-1.773-2.174-2.187-.82-.414-1.66-.62-2.524-.62-.865 0-1.697.206-2.498.62-.8.414-1.512 1.143-2.133 2.187-.62 1.044-1.12 2.466-1.497 4.266-.38 1.8-.567 4.086-.567 6.858 0 2.79.188 5.085.567 6.885.378 1.8.877 3.222 1.498 4.266.622 1.043 1.333 1.772 2.134 2.186.8.414 1.633.62 2.498.62.864 0 1.705-.206 2.524-.62.82-.414 1.543-1.143 2.174-2.187.63-1.045 1.138-2.467 1.525-4.267.387-1.8.58-4.095.58-6.885zm41.115 0c0 3.42-.368 6.39-1.107 8.91-.738 2.52-1.754 4.603-3.05 6.25-1.297 1.648-2.83 2.87-4.604 3.673-1.774.802-3.686 1.202-5.738 1.202-2.053 0-3.96-.4-5.724-1.2-1.765-.803-3.285-2.026-4.563-3.674-1.28-1.647-2.282-3.73-3.01-6.25-.73-2.52-1.094-5.49-1.094-8.91s.365-6.385 1.094-8.897c.73-2.51 1.732-4.588 3.01-6.236 1.28-1.647 2.8-2.87 4.564-3.67 1.764-.803 3.67-1.203 5.724-1.203 2.052 0 3.964.4 5.737 1.202 1.772.802 3.306 2.025 4.603 3.672 1.296 1.648 2.312 3.726 3.05 6.238.74 2.51 1.108 5.476 1.108 8.896zm-7.695 0c0-2.772-.193-5.058-.58-6.858-.387-1.8-.895-3.222-1.525-4.266-.63-1.044-1.355-1.773-2.174-2.187-.82-.414-1.66-.62-2.524-.62-.865 0-1.697.206-2.498.62-.8.414-1.512 1.143-2.133 2.187-.62 1.044-1.12 2.466-1.497 4.266-.38 1.8-.567 4.086-.567 6.858 0 2.79.188 5.085.567 6.885.378 1.8.877 3.222 1.498 4.266.622 1.043 1.333 1.772 2.134 2.186.8.414 1.633.62 2.498.62.864 0 1.705-.206 2.524-.62.82-.414 1.543-1.143 2.174-2.187.63-1.045 1.138-2.467 1.525-4.267.387-1.8.58-4.095.58-6.885zM153.284 73.924c-.112.184-.226.318-.342.402-.116.084-.266.126-.45.126-.176 0-.366-.062-.57-.186-.204-.124-.442-.258-.714-.402-.272-.144-.584-.278-.936-.402-.352-.124-.764-.186-1.236-.186-.832 0-1.456.186-1.872.558-.416.372-.624.858-.624 1.458 0 .384.114.702.342.954.228.252.528.47.9.654.372.184.794.348 1.266.492.472.144.956.302 1.452.474s.98.374 1.452.606c.472.232.894.524 1.266.876s.672.782.9 1.29c.228.508.342 1.126.342 1.854 0 .792-.138 1.534-.414 2.226-.276.692-.674 1.296-1.194 1.812-.52.516-1.162.922-1.926 1.218-.764.296-1.63.444-2.598.444-.552 0-1.102-.056-1.65-.168-.548-.112-1.076-.268-1.584-.468s-.986-.44-1.434-.72c-.448-.28-.84-.592-1.176-.936l1.056-1.704c.088-.128.204-.234.348-.318.144-.084.296-.126.456-.126.216 0 .444.08.684.24.24.16.516.336.828.528.312.192.674.368 1.086.528.412.16.906.24 1.482.24.84 0 1.49-.192 1.95-.576.46-.384.69-.956.69-1.716 0-.44-.114-.796-.342-1.068-.228-.272-.526-.5-.894-.684-.368-.184-.788-.342-1.26-.474-.472-.132-.956-.278-1.452-.438-.496-.16-.98-.352-1.452-.576-.472-.224-.892-.52-1.26-.888s-.666-.824-.894-1.368c-.228-.544-.342-1.22-.342-2.028 0-.648.128-1.276.384-1.884.256-.608.632-1.148 1.128-1.62.496-.472 1.106-.852 1.83-1.14.724-.288 1.554-.432 2.49-.432 1.048 0 2.018.162 2.91.486.892.324 1.646.774 2.262 1.35l-.888 1.692zm15.6-3.336v2.82h-7.464v4.476h5.808v2.724h-5.808v4.572h7.464V88h-11.088V70.588h11.088zm7.008 14.484h6.732V88h-10.332V70.588h3.6v14.484zm20.736-14.484v2.82h-7.464v4.476h5.808v2.724h-5.808v4.572h7.464V88H185.54V70.588h11.088zm14.904 13.128c.2 0 .368.072.504.216l1.428 1.524c-.704.896-1.578 1.576-2.622 2.04-1.044.464-2.286.696-3.726.696-1.304 0-2.476-.222-3.516-.666-1.04-.444-1.924-1.062-2.652-1.854-.728-.792-1.288-1.732-1.68-2.82-.392-1.088-.588-2.276-.588-3.564 0-.864.094-1.686.282-2.466.188-.78.462-1.498.822-2.154.36-.656.794-1.248 1.302-1.776s1.082-.978 1.722-1.35c.64-.372 1.338-.656 2.094-.852.756-.196 1.562-.294 2.418-.294.64 0 1.246.056 1.818.168.572.112 1.106.268 1.602.468s.954.442 1.374.726c.42.284.798.594 1.134.93l-1.212 1.656c-.072.104-.164.196-.276.276-.112.08-.264.12-.456.12s-.386-.068-.582-.204c-.196-.136-.436-.288-.72-.456-.284-.168-.64-.32-1.068-.456-.428-.136-.97-.204-1.626-.204-.728 0-1.396.132-2.004.396-.608.264-1.13.646-1.566 1.146-.436.5-.774 1.114-1.014 1.842s-.36 1.556-.36 2.484c0 .936.13 1.77.39 2.502.26.732.616 1.35 1.068 1.854.452.504.98.886 1.584 1.146.604.26 1.25.39 1.938.39.408 0 .778-.02 1.11-.06.332-.04.64-.108.924-.204.284-.096.552-.22.804-.372s.506-.344.762-.576c.088-.072.18-.132.276-.18.096-.048.2-.072.312-.072zm17.004-13.128v2.904h-5.088V88h-3.612V73.492h-5.088v-2.904h13.788zM235.052 88h-3.624V70.588h3.624V88zm21.192-8.712c0 1.272-.214 2.452-.642 3.54-.428 1.088-1.032 2.028-1.812 2.82-.78.792-1.718 1.414-2.814 1.866-1.096.452-2.312.678-3.648.678-1.336 0-2.552-.226-3.648-.678-1.096-.452-2.036-1.074-2.82-1.866-.784-.792-1.39-1.732-1.818-2.82-.428-1.088-.642-2.268-.642-3.54 0-1.272.214-2.45.642-3.534.428-1.084 1.034-2.022 1.818-2.814.784-.792 1.724-1.414 2.82-1.866 1.096-.452 2.312-.678 3.648-.678 1.336 0 2.552.226 3.648.678 1.096.452 2.034 1.076 2.814 1.872.78.796 1.384 1.736 1.812 2.82.428 1.084.642 2.258.642 3.522zm-3.684 0c0-.912-.12-1.73-.36-2.454-.24-.724-.586-1.34-1.038-1.848-.452-.508-1-.896-1.644-1.164-.644-.268-1.374-.402-2.19-.402-.816 0-1.548.134-2.196.402-.648.268-1.198.656-1.65 1.164-.452.508-.798 1.124-1.038 1.848s-.36 1.542-.36 2.454c0 .92.12 1.742.36 2.466.24.724.586 1.338 1.038 1.842.452.504 1.002.89 1.65 1.158.648.268 1.38.402 2.196.402.816 0 1.546-.134 2.19-.402.644-.268 1.192-.654 1.644-1.158.452-.504.798-1.118 1.038-1.842s.36-1.546.36-2.466zm8.94-8.7c.152 0 .282.006.39.018.108.012.206.04.294.084.088.044.172.102.252.174.08.072.168.168.264.288l8.736 11.1c-.032-.304-.056-.6-.072-.888-.016-.288-.024-.56-.024-.816v-9.96h3.18V88h-1.86c-.28 0-.516-.046-.708-.138-.192-.092-.38-.25-.564-.474l-8.676-11.028c.024.28.042.554.054.822.012.268.018.518.018.75V88h-3.18V70.588h1.896zm40.632 8.7c0 1.272-.214 2.452-.642 3.54-.428 1.088-1.032 2.028-1.812 2.82-.78.792-1.718 1.414-2.814 1.866-1.096.452-2.312.678-3.648.678-1.336 0-2.552-.226-3.648-.678-1.096-.452-2.036-1.074-2.82-1.866-.784-.792-1.39-1.732-1.818-2.82-.428-1.088-.642-2.268-.642-3.54 0-1.272.214-2.45.642-3.534.428-1.084 1.034-2.022 1.818-2.814.784-.792 1.724-1.414 2.82-1.866 1.096-.452 2.312-.678 3.648-.678 1.336 0 2.552.226 3.648.678 1.096.452 2.034 1.076 2.814 1.872.78.796 1.384 1.736 1.812 2.82.428 1.084.642 2.258.642 3.522zm-3.684 0c0-.912-.12-1.73-.36-2.454-.24-.724-.586-1.34-1.038-1.848-.452-.508-1-.896-1.644-1.164-.644-.268-1.374-.402-2.19-.402-.816 0-1.548.134-2.196.402-.648.268-1.198.656-1.65 1.164-.452.508-.798 1.124-1.038 1.848s-.36 1.542-.36 2.454c0 .92.12 1.742.36 2.466.24.724.586 1.338 1.038 1.842.452.504 1.002.89 1.65 1.158.648.268 1.38.402 2.196.402.816 0 1.546-.134 2.19-.402.644-.268 1.192-.654 1.644-1.158.452-.504.798-1.118 1.038-1.842s.36-1.546.36-2.466zm18.132-8.7v2.82h-7.464v4.812h6.264v2.832h-6.264V88h-3.624V70.588h11.088zM159.42 176h-2.796c-.312 0-.566-.074-.762-.222-.196-.148-.342-.338-.438-.57l-1.176-3.324h-6.936l-1.176 3.324c-.08.2-.22.382-.42.546-.2.164-.452.246-.756.246h-2.82l6.804-17.412h3.684L159.42 176zm-11.232-6.612h5.184l-1.884-5.328c-.112-.28-.23-.608-.354-.984-.124-.376-.246-.78-.366-1.212-.112.44-.228.85-.348 1.23-.12.38-.236.71-.348.99l-1.884 5.304zm24.548-10.8v2.82h-7.464v4.476h5.808v2.724h-5.808v4.572h7.464V176h-11.088v-17.412h11.088zm6.676 0h2.904c.312 0 .566.074.762.222.196.148.342.338.438.57l3.768 10.032c.144.376.286.786.426 1.23.14.444.266.91.378 1.398.104-.488.22-.954.348-1.398.128-.444.264-.854.408-1.23l3.744-10.032c.08-.2.222-.382.426-.546.204-.164.458-.246.762-.246h2.916L189.684 176h-3.264l-7.008-17.412zM212.744 176h-2.796c-.312 0-.566-.074-.762-.222-.196-.148-.342-.338-.438-.57l-1.176-3.324h-6.936l-1.176 3.324c-.08.2-.22.382-.42.546-.2.164-.452.246-.756.246h-2.82l6.804-17.412h3.684L212.744 176zm-11.232-6.612h5.184l-1.884-5.328c-.112-.28-.23-.608-.354-.984-.124-.376-.246-.78-.366-1.212-.112.44-.228.85-.348 1.23-.12.38-.236.71-.348.99l-1.884 5.304zm24.776 2.328c.2 0 .368.072.504.216l1.428 1.524c-.704.896-1.578 1.576-2.622 2.04-1.044.464-2.286.696-3.726.696-1.304 0-2.476-.222-3.516-.666-1.04-.444-1.924-1.062-2.652-1.854-.728-.792-1.288-1.732-1.68-2.82-.392-1.088-.588-2.276-.588-3.564 0-.864.094-1.686.282-2.466.188-.78.462-1.498.822-2.154.36-.656.794-1.248 1.302-1.776s1.082-.978 1.722-1.35c.64-.372 1.338-.656 2.094-.852.756-.196 1.562-.294 2.418-.294.64 0 1.246.056 1.818.168.572.112 1.106.268 1.602.468s.954.442 1.374.726c.42.284.798.594 1.134.93l-1.212 1.656c-.072.104-.164.196-.276.276-.112.08-.264.12-.456.12s-.386-.068-.582-.204c-.196-.136-.436-.288-.72-.456-.284-.168-.64-.32-1.068-.456-.428-.136-.97-.204-1.626-.204-.728 0-1.396.132-2.004.396-.608.264-1.13.646-1.566 1.146-.436.5-.774 1.114-1.014 1.842s-.36 1.556-.36 2.484c0 .936.13 1.77.39 2.502.26.732.616 1.35 1.068 1.854.452.504.98.886 1.584 1.146.604.26 1.25.39 1.938.39.408 0 .778-.02 1.11-.06.332-.04.64-.108.924-.204.284-.096.552-.22.804-.372s.506-.344.762-.576c.088-.072.18-.132.276-.18.096-.048.2-.072.312-.072zm19.82 4.284h-2.796c-.312 0-.566-.074-.762-.222-.196-.148-.342-.338-.438-.57l-1.176-3.324H234l-1.176 3.324c-.08.2-.22.382-.42.546-.2.164-.452.246-.756.246h-2.82l6.804-17.412h3.684L246.108 176zm-11.232-6.612h5.184l-1.884-5.328c-.112-.28-.23-.608-.354-.984-.124-.376-.246-.78-.366-1.212-.112.44-.228.85-.348 1.23-.12.38-.236.71-.348.99l-1.884 5.304zm15.356-10.8c.152 0 .282.006.39.018.108.012.206.04.294.084.088.044.172.102.252.174.08.072.168.168.264.288l8.736 11.1c-.032-.304-.056-.6-.072-.888-.016-.288-.024-.56-.024-.816v-9.96h3.18V176h-1.86c-.28 0-.516-.046-.708-.138-.192-.092-.38-.25-.564-.474l-8.676-11.028c.024.28.042.554.054.822.012.268.018.518.018.75V176h-3.18v-17.412h1.896zm29.144 13.128c.2 0 .368.072.504.216l1.428 1.524c-.704.896-1.578 1.576-2.622 2.04-1.044.464-2.286.696-3.726.696-1.304 0-2.476-.222-3.516-.666-1.04-.444-1.924-1.062-2.652-1.854-.728-.792-1.288-1.732-1.68-2.82-.392-1.088-.588-2.276-.588-3.564 0-.864.094-1.686.282-2.466.188-.78.462-1.498.822-2.154.36-.656.794-1.248 1.302-1.776s1.082-.978 1.722-1.35c.64-.372 1.338-.656 2.094-.852.756-.196 1.562-.294 2.418-.294.64 0 1.246.056 1.818.168.572.112 1.106.268 1.602.468s.954.442 1.374.726c.42.284.798.594 1.134.93l-1.212 1.656c-.072.104-.164.196-.276.276-.112.08-.264.12-.456.12s-.386-.068-.582-.204c-.196-.136-.436-.288-.72-.456-.284-.168-.64-.32-1.068-.456-.428-.136-.97-.204-1.626-.204-.728 0-1.396.132-2.004.396-.608.264-1.13.646-1.566 1.146-.436.5-.774 1.114-1.014 1.842s-.36 1.556-.36 2.484c0 .936.13 1.77.39 2.502.26.732.616 1.35 1.068 1.854.452.504.98.886 1.584 1.146.604.26 1.25.39 1.938.39.408 0 .778-.02 1.11-.06.332-.04.64-.108.924-.204.284-.096.552-.22.804-.372s.506-.344.762-.576c.088-.072.18-.132.276-.18.096-.048.2-.072.312-.072zM287.58 176h-3.624v-17.412h3.624V176zm15.356-17.412v2.82h-7.464v4.476h5.808v2.724h-5.808v4.572h7.464V176h-11.088v-17.412h11.088zm12.74 3.336c-.112.184-.226.318-.342.402-.116.084-.266.126-.45.126-.176 0-.366-.062-.57-.186-.204-.124-.442-.258-.714-.402-.272-.144-.584-.278-.936-.402-.352-.124-.764-.186-1.236-.186-.832 0-1.456.186-1.872.558-.416.372-.624.858-.624 1.458 0 .384.114.702.342.954.228.252.528.47.9.654.372.184.794.348 1.266.492.472.144.956.302 1.452.474s.98.374 1.452.606c.472.232.894.524 1.266.876s.672.782.9 1.29c.228.508.342 1.126.342 1.854 0 .792-.138 1.534-.414 2.226-.276.692-.674 1.296-1.194 1.812-.52.516-1.162.922-1.926 1.218-.764.296-1.63.444-2.598.444-.552 0-1.102-.056-1.65-.168-.548-.112-1.076-.268-1.584-.468s-.986-.44-1.434-.72c-.448-.28-.84-.592-1.176-.936l1.056-1.704c.088-.128.204-.234.348-.318.144-.084.296-.126.456-.126.216 0 .444.08.684.24.24.16.516.336.828.528.312.192.674.368 1.086.528.412.16.906.24 1.482.24.84 0 1.49-.192 1.95-.576.46-.384.69-.956.69-1.716 0-.44-.114-.796-.342-1.068-.228-.272-.526-.5-.894-.684-.368-.184-.788-.342-1.26-.474-.472-.132-.956-.278-1.452-.438-.496-.16-.98-.352-1.452-.576-.472-.224-.892-.52-1.26-.888s-.666-.824-.894-1.368c-.228-.544-.342-1.22-.342-2.028 0-.648.128-1.276.384-1.884.256-.608.632-1.148 1.128-1.62.496-.472 1.106-.852 1.83-1.14.724-.288 1.554-.432 2.49-.432 1.048 0 2.018.162 2.91.486.892.324 1.646.774 2.262 1.35l-.888 1.692z"/></g></g></svg>