<svg width="469" height="245" viewBox="0 0 469 245" xmlns="http://www.w3.org/2000/svg"><title>Image 3</title><g fill="none" fill-rule="evenodd"><path fill="#F9F9F9" d="M0 0h469.413v245H0z"/><g fill="#1C4996"><path d="M179.42 138.22c-1.997 1.458-4.125 2.524-6.384 3.2-2.26.675-4.65 1.012-7.17 1.012-3.22 0-6.137-.5-8.747-1.498-2.61-1-4.843-2.39-6.697-4.172-1.854-1.782-3.285-3.897-4.293-6.345s-1.512-5.12-1.512-8.02c0-2.933.48-5.624 1.445-8.072.963-2.448 2.335-4.554 4.117-6.318 1.782-1.764 3.937-3.14 6.467-4.13 2.53-.99 5.36-1.486 8.49-1.486 1.62 0 3.133.13 4.537.392s2.7.62 3.888 1.08c1.188.46 2.277 1.004 3.267 1.634.99.63 1.89 1.323 2.7 2.08l-2.35 3.617c-.36.576-.828.927-1.404 1.053-.576.126-1.206-.018-1.89-.432-.648-.396-1.282-.75-1.903-1.067-.622-.315-1.283-.59-1.985-.823-.702-.234-1.467-.414-2.295-.54-.828-.126-1.782-.19-2.862-.19-1.817 0-3.464.316-4.94.946-1.476.63-2.73 1.52-3.766 2.673-1.036 1.152-1.832 2.538-2.39 4.158-.558 1.62-.837 3.43-.837 5.428 0 2.16.306 4.09.918 5.79.612 1.703 1.476 3.138 2.592 4.308s2.452 2.06 4.01 2.673c1.557.61 3.29.917 5.197.917 1.296 0 2.452-.13 3.47-.392 1.017-.26 2.01-.616 2.983-1.066v-6.59h-4.428c-.523 0-.932-.138-1.23-.417-.297-.28-.445-.635-.445-1.067v-4.51h13.446v16.174zm16.816-11.15V142h-8.1v-39.177h12.312c2.736 0 5.076.283 7.02.85 1.944.568 3.537 1.355 4.78 2.363 1.24 1.008 2.15 2.21 2.726 3.605.576 1.396.864 2.93.864 4.604 0 1.296-.184 2.524-.553 3.685-.37 1.16-.905 2.218-1.607 3.172-.702.954-1.566 1.8-2.592 2.538-1.026.738-2.205 1.332-3.537 1.782.52.288 1.01.634 1.47 1.04.46.405.87.886 1.23 1.444L219.374 142h-7.317c-1.368 0-2.358-.522-2.97-1.566l-7.452-12.015c-.306-.47-.643-.81-1.012-1.027-.37-.216-.914-.324-1.634-.324h-2.754zm0-5.698h4.158c1.314 0 2.448-.166 3.402-.5.954-.333 1.737-.79 2.35-1.377.61-.585 1.06-1.273 1.35-2.065.287-.792.43-1.656.43-2.592 0-1.854-.615-3.294-1.848-4.32-1.234-1.026-3.11-1.54-5.63-1.54h-4.212v12.394zm54.02-18.55v6.346h-16.793v10.07h13.068v6.13h-13.067v10.287h16.794V142H225.31v-39.177h24.947zM292.697 142h-6.292c-.702 0-1.273-.166-1.714-.5-.442-.333-.77-.76-.986-1.282l-2.646-7.48h-15.606l-2.646 7.48c-.18.45-.495.86-.945 1.228-.45.37-1.016.554-1.7.554h-6.345l15.31-39.177h8.288L292.695 142zm-25.273-14.877h11.664l-4.24-11.988c-.25-.63-.516-1.368-.795-2.214-.28-.845-.554-1.754-.824-2.726-.252.99-.513 1.912-.783 2.767-.27.857-.53 1.6-.783 2.23l-4.24 11.933zm54.885-24.3v6.534H310.86V142h-8.127v-32.643h-11.448v-6.534h31.023zM147.228 70.588h3.024c.312 0 .574.072.786.216.212.144.35.336.414.576l2.7 9.816c.064.28.13.576.198.888.068.312.134.644.198.996.072-.352.148-.686.228-1.002.08-.316.168-.61.264-.882l3.144-9.816c.064-.2.202-.382.414-.546.212-.164.47-.246.774-.246h1.056c.312 0 .566.074.762.222.196.148.342.338.438.57l3.132 9.816c.088.256.174.536.258.84.084.304.158.624.222.96.064-.336.128-.656.192-.96.064-.304.128-.584.192-.84l2.7-9.816c.056-.208.192-.392.408-.552.216-.16.476-.24.78-.24h2.832L166.944 88h-3.252l-3.564-11.388c-.064-.16-.122-.336-.174-.528-.052-.192-.102-.392-.15-.6l-.162.6c-.052.192-.106.368-.162.528L155.88 88h-3.264l-5.388-17.412zm40.78 0v2.82h-7.464v4.476h5.808v2.724h-5.808v4.572h7.464V88H176.92V70.588h11.088zm17.228 11.424V88h-3.6V70.588h5.88c1.192 0 2.222.14 3.09.42.868.28 1.582.67 2.142 1.17.56.5.974 1.094 1.242 1.782s.402 1.436.402 2.244c0 .856-.14 1.64-.42 2.352-.28.712-.704 1.324-1.272 1.836-.568.512-1.284.91-2.148 1.194-.864.284-1.876.426-3.036.426h-2.28zm0-2.76h2.28c1.128 0 1.954-.272 2.478-.816.524-.544.786-1.288.786-2.232 0-.432-.066-.826-.198-1.182s-.332-.66-.6-.912c-.268-.252-.606-.446-1.014-.582-.408-.136-.892-.204-1.452-.204h-2.28v5.928zm17.668 2.112V88h-3.6V70.588h5.472c1.216 0 2.256.126 3.12.378.864.252 1.572.602 2.124 1.05.552.448.956.982 1.212 1.602.256.62.384 1.302.384 2.046 0 .576-.082 1.122-.246 1.638-.164.516-.402.986-.714 1.41-.312.424-.696.8-1.152 1.128-.456.328-.98.592-1.572.792.232.128.45.282.654.462.204.18.386.394.546.642L233.188 88h-3.252c-.608 0-1.048-.232-1.32-.696l-3.312-5.34c-.136-.208-.286-.36-.45-.456-.164-.096-.406-.144-.726-.144h-1.224zm0-2.532h1.848c.584 0 1.088-.074 1.512-.222.424-.148.772-.352 1.044-.612s.472-.566.6-.918c.128-.352.192-.736.192-1.152 0-.824-.274-1.464-.822-1.92-.548-.456-1.382-.684-2.502-.684h-1.872v5.508zm31.144.456c0 1.272-.214 2.452-.642 3.54-.428 1.088-1.032 2.028-1.812 2.82-.78.792-1.718 1.414-2.814 1.866-1.096.452-2.312.678-3.648.678-1.336 0-2.552-.226-3.648-.678-1.096-.452-2.036-1.074-2.82-1.866-.784-.792-1.39-1.732-1.818-2.82-.428-1.088-.642-2.268-.642-3.54 0-1.272.214-2.45.642-3.534.428-1.084 1.034-2.022 1.818-2.814.784-.792 1.724-1.414 2.82-1.866 1.096-.452 2.312-.678 3.648-.678 1.336 0 2.552.226 3.648.678 1.096.452 2.034 1.076 2.814 1.872.78.796 1.384 1.736 1.812 2.82.428 1.084.642 2.258.642 3.522zm-3.684 0c0-.912-.12-1.73-.36-2.454-.24-.724-.586-1.34-1.038-1.848-.452-.508-1-.896-1.644-1.164-.644-.268-1.374-.402-2.19-.402-.816 0-1.548.134-2.196.402-.648.268-1.198.656-1.65 1.164-.452.508-.798 1.124-1.038 1.848s-.36 1.542-.36 2.454c0 .92.12 1.742.36 2.466.24.724.586 1.338 1.038 1.842.452.504 1.002.89 1.65 1.158.648.268 1.38.402 2.196.402.816 0 1.546-.134 2.19-.402.644-.268 1.192-.654 1.644-1.158.452-.504.798-1.118 1.038-1.842s.36-1.546.36-2.466zm6.304-8.7h2.904c.312 0 .566.074.762.222.196.148.342.338.438.57l3.768 10.032c.144.376.286.786.426 1.23.14.444.266.91.378 1.398.104-.488.22-.954.348-1.398.128-.444.264-.854.408-1.23l3.744-10.032c.08-.2.222-.382.426-.546.204-.164.458-.246.762-.246h2.916L266.94 88h-3.264l-7.008-17.412zM281.8 88h-3.624V70.588h3.624V88zm21.88-8.712c0 1.272-.214 2.442-.642 3.51-.428 1.068-1.032 1.986-1.812 2.754s-1.718 1.368-2.814 1.8c-1.096.432-2.312.648-3.648.648h-6.696V70.588h6.696c1.336 0 2.552.216 3.648.648 1.096.432 2.034 1.034 2.814 1.806.78.772 1.384 1.69 1.812 2.754.428 1.064.642 2.228.642 3.492zm-3.696 0c0-.912-.12-1.732-.36-2.46s-.584-1.344-1.032-1.848c-.448-.504-.994-.892-1.638-1.164-.644-.272-1.374-.408-2.19-.408h-3.072V85.18h3.072c.816 0 1.546-.134 2.19-.402.644-.268 1.19-.656 1.638-1.164.448-.508.792-1.126 1.032-1.854.24-.728.36-1.552.36-2.472zm20.056-8.7v2.82h-7.464v4.476h5.808v2.724h-5.808v4.572h7.464V88h-11.088V70.588h11.088zM158.856 170.716c.2 0 .368.072.504.216l1.428 1.524c-.704.896-1.578 1.576-2.622 2.04-1.044.464-2.286.696-3.726.696-1.304 0-2.476-.222-3.516-.666-1.04-.444-1.924-1.062-2.652-1.854-.728-.792-1.288-1.732-1.68-2.82-.392-1.088-.588-2.276-.588-3.564 0-.864.094-1.686.282-2.466.188-.78.462-1.498.822-2.154.36-.656.794-1.248 1.302-1.776s1.082-.978 1.722-1.35c.64-.372 1.338-.656 2.094-.852.756-.196 1.562-.294 2.418-.294.64 0 1.246.056 1.818.168.572.112 1.106.268 1.602.468s.954.442 1.374.726c.42.284.798.594 1.134.93l-1.212 1.656c-.072.104-.164.196-.276.276-.112.08-.264.12-.456.12s-.386-.068-.582-.204c-.196-.136-.436-.288-.72-.456-.284-.168-.64-.32-1.068-.456-.428-.136-.97-.204-1.626-.204-.728 0-1.396.132-2.004.396-.608.264-1.13.646-1.566 1.146-.436.5-.774 1.114-1.014 1.842s-.36 1.556-.36 2.484c0 .936.13 1.77.39 2.502.26.732.616 1.35 1.068 1.854.452.504.98.886 1.584 1.146.604.26 1.25.39 1.938.39.408 0 .778-.02 1.11-.06.332-.04.64-.108.924-.204.284-.096.552-.22.804-.372s.506-.344.762-.576c.088-.072.18-.132.276-.18.096-.048.2-.072.312-.072zm10.18 1.356h6.732V175h-10.332v-17.412h3.6v14.484zM184.208 175h-3.624v-17.412h3.624V175zm17.356-17.412v2.82H194.1v4.476h5.808v2.724H194.1v4.572h7.464V175h-11.088v-17.412h11.088zm7.204 0c.152 0 .282.006.39.018.108.012.206.04.294.084.088.044.172.102.252.174.08.072.168.168.264.288l8.736 11.1c-.032-.304-.056-.6-.072-.888-.016-.288-.024-.56-.024-.816v-9.96h3.18V175h-1.86c-.28 0-.516-.046-.708-.138-.192-.092-.38-.25-.564-.474l-8.676-11.028c.024.28.042.554.054.822.012.268.018.518.018.75V175h-3.18v-17.412h1.896zm31.612 0v2.904h-5.088V175h-3.612v-14.508h-5.088v-2.904h13.788zm24.236 13.128c.2 0 .368.072.504.216l1.428 1.524c-.704.896-1.578 1.576-2.622 2.04-1.044.464-2.286.696-3.726.696-1.304 0-2.476-.222-3.516-.666-1.04-.444-1.924-1.062-2.652-1.854-.728-.792-1.288-1.732-1.68-2.82-.392-1.088-.588-2.276-.588-3.564 0-.864.094-1.686.282-2.466.188-.78.462-1.498.822-2.154.36-.656.794-1.248 1.302-1.776s1.082-.978 1.722-1.35c.64-.372 1.338-.656 2.094-.852.756-.196 1.562-.294 2.418-.294.64 0 1.246.056 1.818.168.572.112 1.106.268 1.602.468s.954.442 1.374.726c.42.284.798.594 1.134.93l-1.212 1.656c-.072.104-.164.196-.276.276-.112.08-.264.12-.456.12s-.386-.068-.582-.204c-.196-.136-.436-.288-.72-.456-.284-.168-.64-.32-1.068-.456-.428-.136-.97-.204-1.626-.204-.728 0-1.396.132-2.004.396-.608.264-1.13.646-1.566 1.146-.436.5-.774 1.114-1.014 1.842s-.36 1.556-.36 2.484c0 .936.13 1.77.39 2.502.26.732.616 1.35 1.068 1.854.452.504.98.886 1.584 1.146.604.26 1.25.39 1.938.39.408 0 .778-.02 1.11-.06.332-.04.64-.108.924-.204.284-.096.552-.22.804-.372s.506-.344.762-.576c.088-.072.18-.132.276-.18.096-.048.2-.072.312-.072zm21.82 4.284h-2.796c-.312 0-.566-.074-.762-.222-.196-.148-.342-.338-.438-.57l-1.176-3.324h-6.936l-1.176 3.324c-.08.2-.22.382-.42.546-.2.164-.452.246-.756.246h-2.82l6.804-17.412h3.684L286.436 175zm-11.232-6.612h5.184l-1.884-5.328c-.112-.28-.23-.608-.354-.984-.124-.376-.246-.78-.366-1.212-.112.44-.228.85-.348 1.23-.12.38-.236.71-.348.99l-1.884 5.304zm19.06-.024V175h-3.6v-17.412h5.472c1.216 0 2.256.126 3.12.378.864.252 1.572.602 2.124 1.05.552.448.956.982 1.212 1.602.256.62.384 1.302.384 2.046 0 .576-.082 1.122-.246 1.638-.164.516-.402.986-.714 1.41-.312.424-.696.8-1.152 1.128-.456.328-.98.592-1.572.792.232.128.45.282.654.462.204.18.386.394.546.642l4.056 6.264h-3.252c-.608 0-1.048-.232-1.32-.696l-3.312-5.34c-.136-.208-.286-.36-.45-.456-.164-.096-.406-.144-.726-.144h-1.224zm0-2.532h1.848c.584 0 1.088-.074 1.512-.222.424-.148.772-.352 1.044-.612s.472-.566.6-.918c.128-.352.192-.736.192-1.152 0-.824-.274-1.464-.822-1.92-.548-.456-1.382-.684-2.502-.684h-1.872v5.508zm25.696-8.244v2.82h-7.464v4.476h5.808v2.724h-5.808v4.572h7.464V175h-11.088v-17.412h11.088z"/></g></g></svg>