<?xml version="1.0" encoding="UTF-8"?>
<svg width="32px" height="46px" viewBox="0 0 32 46" version="1.1" xmlns="http://www.w3.org/2000/svg" xmlns:xlink="http://www.w3.org/1999/xlink">
    <!-- Generator: Sketch 42 (36781) - http://www.bohemiancoding.com/sketch -->
    <title>Logo</title>
    <desc>Created with Sketch.</desc>
    <defs></defs>
    <g id="Job-Listing-Page" stroke="none" stroke-width="1" fill="none" fill-rule="evenodd">
        <g id="Job-Listing-Mobile" transform="translate(-16.000000, -14.000000)" fill="#1C4996">
            <g id="Logo" transform="translate(16.000000, 14.000000)">
                <path d="M24.6570588,0.916564134 C24.8780252,0.410359741 25.5048692,-2.84217094e-14 26.0572267,-2.84217094e-14 L29.3082913,-2.84217094e-14 C29.8606162,-2.84217094e-14 30.1305478,0.412894988 29.913639,0.916564134 L16.2263788,32.6988205 C16.0083782,33.2050249 15.3858078,33.6153846 14.8323768,33.6153846 L11.3827681,33.6153846 C10.8308827,33.6153846 10.5637265,33.2024896 10.7835863,32.6988205 L24.6570588,0.916564134 Z" id="Rectangle-3" transform="translate(20.347597, 16.807692) scale(1, -1) translate(-20.347597, -16.807692) "></path>
                <path d="M6.73435006,18.5940242 C6.96566114,18.0960199 7.60093741,17.6923077 8.1567462,17.6923077 L11.621176,17.6923077 C12.1754327,17.6923077 12.4384369,18.1019154 12.2146019,18.5940242 L5.79230118,32.7136681 C5.56578462,33.2116724 4.94078259,33.6153846 4.37654272,33.6153846 L0.762901117,33.6153846 C0.207515874,33.6153846 -0.0524598162,33.2057769 0.176112939,32.7136681 L6.73435006,18.5940242 Z" id="Rectangle-3"></path>
                <path d="M5.62311463,37.1538462 L5.62311463,38.3149038 L1.47152777,38.3149038 L1.47152777,40.9810363 L4.79029253,40.9810363 L4.79029253,42.105235 L1.47152777,42.105235 L1.47152777,44.8389423 L5.62937645,44.8389423 L5.62311463,46 L0,46 L0,37.1538462 L5.62311463,37.1538462 Z M9.04483337,44.7959402 L12.7894019,44.7959402 L12.7894019,46 L7.57956742,46 L7.57956742,37.1538462 L9.04483337,37.1538462 L9.04483337,44.7959402 Z M15.885506,46 L14.4139782,46 L14.4139782,37.1538462 L15.885506,37.1538462 L15.885506,46 Z M24.5984629,37.1538462 L24.5984629,38.3517628 L21.7869056,38.3517628 L21.7869056,46 L20.3279015,46 L20.3279015,38.3517628 L17.5100823,38.3517628 L17.5100823,37.1538462 L24.5984629,37.1538462 Z M31.839892,37.1538462 L31.839892,38.3149038 L27.6883052,38.3149038 L27.6883052,40.9810363 L31.0070699,40.9810363 L31.0070699,42.105235 L27.6883052,42.105235 L27.6883052,44.8389423 L31.8461538,44.8389423 L31.839892,46 L26.2167774,46 L26.2167774,37.1538462 L31.839892,37.1538462 Z" id="ELITE"></path>
            </g>
        </g>
    </g>
</svg>