<?xml version="1.0" encoding="UTF-8"?>
<svg width="246px" height="34px" viewBox="0 0 246 34" version="1.1" xmlns="http://www.w3.org/2000/svg" xmlns:xlink="http://www.w3.org/1999/xlink">
    <!-- Generator: Sketch 42 (36781) - http://www.bohemiancoding.com/sketch -->
    <title>Group 6</title>
    <desc>Created with Sketch.</desc>
    <defs></defs>
    <g id="Job-Listing-Page" stroke="none" stroke-width="1" fill="none" fill-rule="evenodd">
        <g id="Job-Listing-Desktop" transform="translate(-121.000000, -55.000000)" fill="#1C4996">
            <g id="Nav" transform="translate(120.000000, 48.000000)">
                <g id="Group-6" transform="translate(0.000000, 7.000000)">
                    <g id="Group-5" transform="translate(0.935226, 0.000000)">
                        <path d="M25.8544238,0.4554899 C25.9722556,0.203929774 26.2922397,7.10542736e-15 26.5603511,7.10542736e-15 L31.1257501,7.10542736e-15 C31.3977912,7.10542736e-15 31.5206089,0.211451045 31.4078344,0.4554899 L16.5268816,32.6571879 C16.4106314,32.908748 16.0976751,33.1126778 15.8254062,33.1126778 L11.0486512,33.1126778 C10.7774872,33.1126778 10.6567099,32.9012268 10.7710187,32.6571879 L25.8544238,0.4554899 Z" id="Rectangle-3" transform="translate(21.088810, 16.556339) scale(1, -1) translate(-21.088810, -16.556339) "></path>
                        <path d="M7.21903386,17.7330564 C7.33747306,17.4807304 7.65588068,17.2761797 7.94099873,17.2761797 L12.4253616,17.2761797 C12.7056526,17.2761797 12.8408347,17.4764116 12.7228653,17.7330564 L5.86347259,32.6558011 C5.74748835,32.9081271 5.43874551,33.1126778 5.15175728,33.1126778 L0.501707264,33.1126778 C0.224621993,33.1126778 0.0939867416,32.9124459 0.21445314,32.6558011 L7.21903386,17.7330564 Z" id="Rectangle-3"></path>
                    </g>
                    <path d="M38.2281988,32.8074534 L38.2281988,18.9787578 L40.1825466,18.9787578 C40.5239976,18.9787578 40.7621111,19.0394093 40.8968944,19.1607143 C41.0316777,19.2820192 41.1215319,19.4999156 41.1664596,19.8144099 L41.3551553,21.3778882 C41.7954473,20.5512174 42.3121088,19.902021 42.9051553,19.4302795 C43.4982017,18.958538 44.1990643,18.7226708 45.007764,18.7226708 C45.6457382,18.7226708 46.157907,18.8619448 46.5442857,19.1404969 L46.3286335,21.6339752 C46.2837058,21.7957151 46.2185615,21.9102792 46.1331988,21.9776708 C46.047836,22.0450624 45.9332719,22.0787578 45.7895031,22.0787578 C45.6547198,22.0787578 45.4547943,22.0562942 45.1897205,22.0113665 C44.9246467,21.9664387 44.666316,21.9439752 44.4147205,21.9439752 C44.0463129,21.9439752 43.7183451,21.9978877 43.4308075,22.1057143 C43.1432698,22.2135409 42.884939,22.3685394 42.6558075,22.5707143 C42.4266759,22.7728892 42.224504,23.0177418 42.0492857,23.3052795 C41.8740674,23.5928172 41.7100836,23.9207849 41.5573292,24.2891925 L41.5573292,32.8074534 L38.2281988,32.8074534 Z M58.5863239,21.9035404 C58.4874828,22.0293381 58.3908895,22.1281777 58.2965412,22.2000621 C58.202193,22.2719465 58.0651653,22.3078882 57.8854543,22.3078882 C57.7147288,22.3078882 57.5484986,22.256222 57.3867586,22.1528882 C57.2250187,22.0495543 57.0318322,21.9327439 56.8071934,21.8024534 C56.5825546,21.6721629 56.3152385,21.5553525 56.0052369,21.4520186 C55.6952354,21.3486848 55.3111088,21.2970186 54.8528456,21.2970186 C54.2687847,21.2970186 53.7566159,21.4025973 53.3163239,21.6137578 C52.8760318,21.8249182 52.509876,22.1281761 52.2178456,22.5235404 C51.9258152,22.9189047 51.7079188,23.3973781 51.5641499,23.9589752 C51.4203811,24.5205722 51.3484978,25.1562904 51.3484978,25.8661491 C51.3484978,26.6029643 51.4271202,27.2588998 51.5843673,27.8339752 C51.7416145,28.4090505 51.9684963,28.8920167 52.2650195,29.2828882 C52.5615427,29.6737597 52.9209594,29.9702785 53.3432804,30.1724534 C53.7656013,30.3746283 54.2418285,30.4757143 54.771976,30.4757143 C55.3021236,30.4757143 55.7311773,30.41057 56.0591499,30.2802795 C56.3871226,30.149989 56.6634242,30.0062223 56.888063,29.8489752 C57.1127018,29.691728 57.3081346,29.5479613 57.4743673,29.4176708 C57.6406001,29.2873803 57.8270475,29.222236 58.0337152,29.222236 C58.3032817,29.222236 58.5054536,29.3255683 58.6402369,29.532236 L59.5971934,30.7452795 C59.2287858,31.176586 58.8289347,31.5382491 58.3976282,31.8302795 C57.9663217,32.1223099 57.5192972,32.3559308 57.0565412,32.5311491 C56.5937853,32.7063673 56.1175582,32.8299168 55.6278456,32.9018012 C55.138133,32.9736857 54.6506741,33.0096273 54.1654543,33.0096273 C53.3118268,33.0096273 52.507632,32.8501362 51.7528456,32.5311491 C50.9980592,32.212162 50.337631,31.7471666 49.7715412,31.1361491 C49.2054515,30.5251315 48.7584269,29.7770955 48.4304543,28.8920186 C48.1024816,28.0069417 47.9384978,26.9983286 47.9384978,25.8661491 C47.9384978,24.8507817 48.0845108,23.9095592 48.3765412,23.0424534 C48.6685717,22.1753476 49.0976254,21.4250653 49.6637152,20.7915839 C50.2298049,20.1581024 50.9306675,19.6616581 51.7663239,19.302236 C52.6019802,18.9428139 53.5634199,18.7631056 54.6506717,18.7631056 C55.6840102,18.7631056 56.589291,18.9293358 57.3665412,19.2618012 C58.1437915,19.5942667 58.8424077,20.0704938 59.4624108,20.6904969 L58.5863239,21.9035404 Z M62.4605359,32.8074534 L62.4605359,12.7787578 L65.7896663,12.7787578 L65.7896663,20.4748447 C66.3287995,19.9626682 66.921837,19.549339 67.5687968,19.2348447 C68.2157565,18.9203504 68.9750243,18.7631056 69.8466229,18.7631056 C70.6014093,18.7631056 71.2708228,18.8911478 71.8548837,19.147236 C72.4389446,19.4033243 72.9264035,19.762741 73.317275,20.2254969 C73.7081466,20.6882528 74.0046653,21.240856 74.2068403,21.883323 C74.4090152,22.52579 74.5101011,23.2333916 74.5101011,24.0061491 L74.5101011,32.8074534 L71.1809707,32.8074534 L71.1809707,24.0061491 C71.1809707,23.1615072 70.9877842,22.507818 70.6014055,22.0450621 C70.2150267,21.5823062 69.6264819,21.3509317 68.8357533,21.3509317 C68.260678,21.3509317 67.7215529,21.4812202 67.218362,21.7418012 C66.7151711,22.0023823 66.238944,22.3573062 65.7896663,22.8065839 L65.7896663,32.8074534 L62.4605359,32.8074534 Z M81.9021393,18.9787578 L81.9021393,32.8074534 L78.5595306,32.8074534 L78.5595306,18.9787578 L81.9021393,18.9787578 Z M82.3604001,14.9487578 C82.3604001,15.2362954 82.3019949,15.505858 82.1851828,15.7574534 C82.0683706,16.0090489 81.9133721,16.2291916 81.7201828,16.4178882 C81.5269934,16.6065848 81.3001116,16.7570905 81.0395306,16.8694099 C80.7789496,16.9817293 80.5004016,17.0378882 80.2038784,17.0378882 C79.9163407,17.0378882 79.6445319,16.9817293 79.3884436,16.8694099 C79.1323554,16.7570905 78.9099663,16.6065848 78.7212697,16.4178882 C78.5325731,16.2291916 78.3820674,16.0090489 78.269748,15.7574534 C78.1574286,15.505858 78.1012697,15.2362954 78.1012697,14.9487578 C78.1012697,14.6522345 78.1574286,14.3736866 78.269748,14.1131056 C78.3820674,13.8525246 78.5325731,13.6278891 78.7212697,13.4391925 C78.9099663,13.250496 79.1323554,13.0999902 79.3884436,12.9876708 C79.6445319,12.8753514 79.9163407,12.8191925 80.2038784,12.8191925 C80.5004016,12.8191925 80.7789496,12.8753514 81.0395306,12.9876708 C81.3001116,13.0999902 81.5269934,13.250496 81.7201828,13.4391925 C81.9133721,13.6278891 82.0683706,13.8525246 82.1851828,14.1131056 C82.3019949,14.3736866 82.3604001,14.6522345 82.3604001,14.9487578 Z M90.6959165,33.0231056 C89.4918526,33.0231056 88.5686009,32.6839061 87.9261339,32.0054969 C87.283667,31.3270877 86.9624383,30.3903579 86.9624383,29.1952795 L86.9624383,21.472236 L85.5472209,21.472236 C85.3675098,21.472236 85.2147578,21.4138308 85.08896,21.2970186 C84.9631623,21.1802065 84.9002644,21.0049908 84.9002644,20.7713665 L84.9002644,19.4504969 L87.1241774,19.0865839 L87.825047,15.3126708 C87.8699747,15.1329598 87.9553362,14.9936858 88.0811339,14.8948447 C88.2069317,14.7960036 88.3686692,14.7465839 88.5663513,14.7465839 L90.2915687,14.7465839 L90.2915687,19.1000621 L93.9846122,19.1000621 L93.9846122,21.472236 L90.2915687,21.472236 L90.2915687,28.9661491 C90.2915687,29.3974556 90.3971474,29.7344087 90.6083078,29.9770186 C90.8194683,30.2196285 91.109248,30.3409317 91.4776557,30.3409317 C91.6843234,30.3409317 91.8572927,30.3162218 91.9965687,30.2668012 C92.1358448,30.2173807 92.2571479,30.1657146 92.3604818,30.1118012 C92.4638156,30.0578879 92.5559161,30.0062218 92.6367861,29.9568012 C92.7176561,29.9073807 92.7985248,29.8826708 92.8793948,29.8826708 C92.9782359,29.8826708 93.0591046,29.9073807 93.1220035,29.9568012 C93.1849024,30.0062218 93.252293,30.0803515 93.3241774,30.1791925 L94.3215687,31.7965839 C93.8363489,32.2009337 93.279253,32.5064379 92.6502644,32.7131056 C92.0212757,32.9197733 91.369833,33.0231056 90.6959165,33.0231056 Z M102.791868,18.7631056 C103.663466,18.7631056 104.467661,18.9023796 105.204476,19.1809317 C105.941292,19.4594838 106.574764,19.8660739 107.104911,20.4007143 C107.635059,20.9353546 108.050634,21.5912901 108.35165,22.3685404 C108.652666,23.1457906 108.803172,24.0331006 108.803172,25.0304969 C108.803172,25.5336878 108.74926,25.8728873 108.641433,26.0481056 C108.533606,26.2233239 108.326942,26.3109317 108.021433,26.3109317 L99.4627373,26.3109317 C99.5166506,27.0207903 99.6424465,27.634045 99.8401286,28.1507143 C100.037811,28.6673835 100.298388,29.0941909 100.621868,29.4311491 C100.945348,29.7681073 101.329474,30.019699 101.774259,30.1859317 C102.219044,30.3521644 102.710995,30.4352795 103.250129,30.4352795 C103.789262,30.4352795 104.254257,30.3723816 104.645129,30.2465839 C105.036,30.1207861 105.377446,29.9815122 105.669476,29.8287578 C105.961507,29.6760034 106.217591,29.5367294 106.437737,29.4109317 C106.657883,29.2851339 106.871287,29.222236 107.077955,29.222236 C107.356507,29.222236 107.563171,29.3255683 107.697955,29.532236 L108.654911,30.7452795 C108.286504,31.176586 107.873174,31.5382491 107.414911,31.8302795 C106.956648,32.1223099 106.478175,32.3559308 105.979476,32.5311491 C105.480778,32.7063673 104.973102,32.8299168 104.456433,32.9018012 C103.939764,32.9736857 103.438827,33.0096273 102.953607,33.0096273 C101.992153,33.0096273 101.098104,32.8501362 100.271433,32.5311491 C99.4447621,32.212162 98.7259288,31.7404276 98.1149112,31.1159317 C97.5038937,30.4914358 97.0231738,29.7186899 96.6727373,28.7976708 C96.3223008,27.8766517 96.1470851,26.8096334 96.1470851,25.5965839 C96.1470851,24.6531009 96.2998372,23.7657909 96.605346,22.9346273 C96.9108548,22.1034638 97.3488939,21.3801377 97.9194764,20.7646273 C98.490059,20.149117 99.1864288,19.6616581 100.008607,19.302236 C100.830785,18.9428139 101.758529,18.7631056 102.791868,18.7631056 Z M102.859259,21.1487578 C101.888819,21.1487578 101.129552,21.422813 100.581433,21.9709317 C100.033314,22.5190504 99.682883,23.296289 99.5301286,24.3026708 L105.810998,24.3026708 C105.810998,23.8713643 105.750347,23.4647742 105.629042,23.0828882 C105.507737,22.7010022 105.325782,22.3662954 105.083172,22.0787578 C104.840562,21.7912201 104.532812,21.5643383 104.159911,21.3981056 C103.787011,21.2318729 103.353464,21.1487578 102.859259,21.1487578 Z M121.990862,21.9035404 C121.892021,22.0293381 121.795428,22.1281777 121.70108,22.2000621 C121.606731,22.2719465 121.469704,22.3078882 121.289993,22.3078882 C121.119267,22.3078882 120.953037,22.256222 120.791297,22.1528882 C120.629557,22.0495543 120.436371,21.9327439 120.211732,21.8024534 C119.987093,21.6721629 119.719777,21.5553525 119.409775,21.4520186 C119.099774,21.3486848 118.715647,21.2970186 118.257384,21.2970186 C117.673323,21.2970186 117.161154,21.4025973 116.720862,21.6137578 C116.28057,21.8249182 115.914415,22.1281761 115.622384,22.5235404 C115.330354,22.9189047 115.112457,23.3973781 114.968688,23.9589752 C114.82492,24.5205722 114.753036,25.1562904 114.753036,25.8661491 C114.753036,26.6029643 114.831659,27.2588998 114.988906,27.8339752 C115.146153,28.4090505 115.373035,28.8920167 115.669558,29.2828882 C115.966081,29.6737597 116.325498,29.9702785 116.747819,30.1724534 C117.17014,30.3746283 117.646367,30.4757143 118.176515,30.4757143 C118.706662,30.4757143 119.135716,30.41057 119.463688,30.2802795 C119.791661,30.149989 120.067963,30.0062223 120.292602,29.8489752 C120.51724,29.691728 120.712673,29.5479613 120.878906,29.4176708 C121.045139,29.2873803 121.231586,29.222236 121.438254,29.222236 C121.70782,29.222236 121.909992,29.3255683 122.044775,29.532236 L123.001732,30.7452795 C122.633324,31.176586 122.233473,31.5382491 121.802167,31.8302795 C121.37086,32.1223099 120.923836,32.3559308 120.46108,32.5311491 C119.998324,32.7063673 119.522097,32.8299168 119.032384,32.9018012 C118.542672,32.9736857 118.055213,33.0096273 117.569993,33.0096273 C116.716365,33.0096273 115.912171,32.8501362 115.157384,32.5311491 C114.402598,32.212162 113.74217,31.7471666 113.17608,31.1361491 C112.60999,30.5251315 112.162965,29.7770955 111.834993,28.8920186 C111.50702,28.0069417 111.343036,26.9983286 111.343036,25.8661491 C111.343036,24.8507817 111.489049,23.9095592 111.78108,23.0424534 C112.07311,22.1753476 112.502164,21.4250653 113.068254,20.7915839 C113.634343,20.1581024 114.335206,19.6616581 115.170862,19.302236 C116.006519,18.9428139 116.967958,18.7631056 118.05521,18.7631056 C119.088549,18.7631056 119.99383,18.9293358 120.77108,19.2618012 C121.54833,19.5942667 122.246946,20.0704938 122.866949,20.6904969 L121.990862,21.9035404 Z M130.47464,33.0231056 C129.270576,33.0231056 128.347324,32.6839061 127.704857,32.0054969 C127.06239,31.3270877 126.741161,30.3903579 126.741161,29.1952795 L126.741161,21.472236 L125.325944,21.472236 C125.146233,21.472236 124.993481,21.4138308 124.867683,21.2970186 C124.741885,21.1802065 124.678987,21.0049908 124.678987,20.7713665 L124.678987,19.4504969 L126.902901,19.0865839 L127.60377,15.3126708 C127.648698,15.1329598 127.734059,14.9936858 127.859857,14.8948447 C127.985655,14.7960036 128.147392,14.7465839 128.345074,14.7465839 L130.070292,14.7465839 L130.070292,19.1000621 L133.763335,19.1000621 L133.763335,21.472236 L130.070292,21.472236 L130.070292,28.9661491 C130.070292,29.3974556 130.17587,29.7344087 130.387031,29.9770186 C130.598191,30.2196285 130.887971,30.3409317 131.256379,30.3409317 C131.463046,30.3409317 131.636016,30.3162218 131.775292,30.2668012 C131.914568,30.2173807 132.035871,30.1657146 132.139205,30.1118012 C132.242539,30.0578879 132.334639,30.0062218 132.415509,29.9568012 C132.496379,29.9073807 132.577248,29.8826708 132.658118,29.8826708 C132.756959,29.8826708 132.837828,29.9073807 132.900727,29.9568012 C132.963625,30.0062218 133.031016,30.0803515 133.102901,30.1791925 L134.100292,31.7965839 C133.615072,32.2009337 133.057976,32.5064379 132.428987,32.7131056 C131.799999,32.9197733 131.148556,33.0231056 130.47464,33.0231056 Z M139.874939,18.9787578 L139.874939,27.7665839 C139.874939,28.6112258 140.070372,29.2649149 140.461243,29.7276708 C140.852115,30.1904267 141.438413,30.4218012 142.220156,30.4218012 C142.795231,30.4218012 143.334356,30.293759 143.837547,30.0376708 C144.340738,29.7815826 144.816965,29.4289049 145.266243,28.9796273 L145.266243,18.9787578 L148.595373,18.9787578 L148.595373,32.8074534 L146.560156,32.8074534 C146.119864,32.8074534 145.841316,32.6052815 145.724504,32.2009317 L145.495373,31.0957143 C145.207836,31.383252 144.911317,31.6460754 144.605808,31.8841925 C144.300299,32.1223097 143.972332,32.3267279 143.621895,32.4974534 C143.271459,32.6681789 142.898564,32.7984675 142.5032,32.888323 C142.107835,32.9781785 141.676535,33.0231056 141.209287,33.0231056 C140.4545,33.0231056 139.787333,32.8950634 139.207765,32.6389752 C138.628197,32.3828869 138.140738,32.0212239 137.745373,31.5539752 C137.350009,31.0867264 137.051244,30.5318769 136.849069,29.8894099 C136.646894,29.246943 136.545808,28.5393413 136.545808,27.7665839 L136.545808,18.9787578 L139.874939,18.9787578 Z M152.671759,32.8074534 L152.671759,18.9787578 L154.626107,18.9787578 C154.967558,18.9787578 155.205672,19.0394093 155.340455,19.1607143 C155.475238,19.2820192 155.565093,19.4999156 155.61002,19.8144099 L155.798716,21.3778882 C156.239008,20.5512174 156.75567,19.902021 157.348716,19.4302795 C157.941762,18.958538 158.642625,18.7226708 159.451325,18.7226708 C160.089299,18.7226708 160.601468,18.8619448 160.987846,19.1404969 L160.772194,21.6339752 C160.727266,21.7957151 160.662122,21.9102792 160.576759,21.9776708 C160.491397,22.0450624 160.376833,22.0787578 160.233064,22.0787578 C160.09828,22.0787578 159.898355,22.0562942 159.633281,22.0113665 C159.368207,21.9664387 159.109877,21.9439752 158.858281,21.9439752 C158.489874,21.9439752 158.161906,21.9978877 157.874368,22.1057143 C157.58683,22.2135409 157.3285,22.3685394 157.099368,22.5707143 C156.870237,22.7728892 156.668065,23.0177418 156.492846,23.3052795 C156.317628,23.5928172 156.153644,23.9207849 156.00089,24.2891925 L156.00089,32.8074534 L152.671759,32.8074534 Z M172.382928,32.8074534 C172.068434,32.8074534 171.825827,32.76028 171.655102,32.6659317 C171.484376,32.5715834 171.349595,32.3806433 171.250754,32.0931056 L170.954232,31.1091925 C170.603796,31.4236869 170.26235,31.6999885 169.929885,31.9381056 C169.597419,32.1762227 169.251481,32.3761483 168.892058,32.5378882 C168.532636,32.6996281 168.14851,32.8209313 167.739667,32.9018012 C167.330825,32.9826712 166.879307,33.0231056 166.385102,33.0231056 C165.801041,33.0231056 165.261916,32.9444832 164.767711,32.787236 C164.273505,32.6299889 163.846698,32.3941217 163.487276,32.0796273 C163.127854,31.765133 162.849306,31.3742673 162.651624,30.9070186 C162.453942,30.4397699 162.355102,29.8961522 162.355102,29.2761491 C162.355102,28.754987 162.49213,28.2405719 162.766189,27.7328882 C163.040248,27.2252045 163.496258,26.7669482 164.134232,26.3581056 C164.772207,25.949263 165.621329,25.6100635 166.681624,25.3404969 C167.741919,25.0709303 169.062775,24.9181782 170.644232,24.882236 L170.644232,24.0735404 C170.644232,23.1480285 170.446553,22.4628904 170.051189,22.0181056 C169.655825,21.5733208 169.085251,21.3509317 168.33945,21.3509317 C167.800317,21.3509317 167.353292,21.4138296 166.998363,21.5396273 C166.643433,21.6654251 166.33119,21.8069454 166.061624,21.9641925 C165.792057,22.1214397 165.547204,22.26296 165.327058,22.3887578 C165.106912,22.5145555 164.86206,22.5774534 164.592493,22.5774534 C164.358869,22.5774534 164.16119,22.5168018 163.99945,22.3954969 C163.83771,22.2741919 163.707421,22.1326716 163.60858,21.9709317 L163.015537,20.9061491 C164.605979,19.4504896 166.519873,18.7226708 168.757276,18.7226708 C169.565976,18.7226708 170.289302,18.8552057 170.927276,19.1202795 C171.56525,19.3853533 172.104375,19.7537554 172.544667,20.2254969 C172.984959,20.6972384 173.319666,21.2610733 173.548798,21.9170186 C173.777929,22.5729639 173.892493,23.2917973 173.892493,24.0735404 L173.892493,32.8074534 L172.382928,32.8074534 Z M167.40945,30.7318012 C168.092352,30.7318012 168.683143,30.6082518 169.181841,30.3611491 C169.680539,30.1140464 170.167998,29.7389052 170.644232,29.2357143 L170.644232,26.9039752 C169.673793,26.9489029 168.862859,27.032018 168.211406,27.153323 C167.559954,27.2746279 167.036553,27.4296264 166.641189,27.618323 C166.245825,27.8070196 165.962784,28.0271623 165.792058,28.2787578 C165.621333,28.5303532 165.535971,28.8044085 165.535971,29.1009317 C165.535971,29.6849926 165.708941,30.1028145 166.054885,30.3544099 C166.400828,30.6060054 166.852346,30.7318012 167.40945,30.7318012 Z M181.176705,12.7787578 L181.176705,32.8074534 L177.847575,32.8074534 L177.847575,12.7787578 L181.176705,12.7787578 Z M205.449477,13.3178882 L205.449477,16.202236 L196.796434,16.202236 L196.796434,21.6070186 L203.616434,21.6070186 L203.616434,24.3970186 L196.796434,24.3970186 L196.796434,29.9096273 L205.449477,29.9096273 L205.449477,32.8074534 L193.157303,32.8074534 L193.157303,13.3178882 L205.449477,13.3178882 Z M212.288907,12.7787578 L212.288907,32.8074534 L208.959776,32.8074534 L208.959776,12.7787578 L212.288907,12.7787578 Z M219.856162,18.9787578 L219.856162,32.8074534 L216.513554,32.8074534 L216.513554,18.9787578 L219.856162,18.9787578 Z M220.314423,14.9487578 C220.314423,15.2362954 220.256018,15.505858 220.139206,15.7574534 C220.022393,16.0090489 219.867395,16.2291916 219.674206,16.4178882 C219.481016,16.6065848 219.254135,16.7570905 218.993554,16.8694099 C218.732972,16.9817293 218.454425,17.0378882 218.157901,17.0378882 C217.870364,17.0378882 217.598555,16.9817293 217.342467,16.8694099 C217.086378,16.7570905 216.863989,16.6065848 216.675293,16.4178882 C216.486596,16.2291916 216.33609,16.0090489 216.223771,15.7574534 C216.111451,15.505858 216.055293,15.2362954 216.055293,14.9487578 C216.055293,14.6522345 216.111451,14.3736866 216.223771,14.1131056 C216.33609,13.8525246 216.486596,13.6278891 216.675293,13.4391925 C216.863989,13.250496 217.086378,13.0999902 217.342467,12.9876708 C217.598555,12.8753514 217.870364,12.8191925 218.157901,12.8191925 C218.454425,12.8191925 218.732972,12.8753514 218.993554,12.9876708 C219.254135,13.0999902 219.481016,13.250496 219.674206,13.4391925 C219.867395,13.6278891 220.022393,13.8525246 220.139206,14.1131056 C220.256018,14.3736866 220.314423,14.6522345 220.314423,14.9487578 Z M228.649939,33.0231056 C227.445875,33.0231056 226.522624,32.6839061 225.880157,32.0054969 C225.23769,31.3270877 224.916461,30.3903579 224.916461,29.1952795 L224.916461,21.472236 L223.501244,21.472236 C223.321533,21.472236 223.168781,21.4138308 223.042983,21.2970186 C222.917185,21.1802065 222.854287,21.0049908 222.854287,20.7713665 L222.854287,19.4504969 L225.0782,19.0865839 L225.77907,15.3126708 C225.823998,15.1329598 225.909359,14.9936858 226.035157,14.8948447 C226.160955,14.7960036 226.322692,14.7465839 226.520374,14.7465839 L228.245592,14.7465839 L228.245592,19.1000621 L231.938635,19.1000621 L231.938635,21.472236 L228.245592,21.472236 L228.245592,28.9661491 C228.245592,29.3974556 228.35117,29.7344087 228.562331,29.9770186 C228.773491,30.2196285 229.063271,30.3409317 229.431679,30.3409317 C229.638346,30.3409317 229.811316,30.3162218 229.950592,30.2668012 C230.089868,30.2173807 230.211171,30.1657146 230.314505,30.1118012 C230.417839,30.0578879 230.509939,30.0062218 230.590809,29.9568012 C230.671679,29.9073807 230.752548,29.8826708 230.833418,29.8826708 C230.932259,29.8826708 231.013128,29.9073807 231.076026,29.9568012 C231.138925,30.0062218 231.206316,30.0803515 231.2782,30.1791925 L232.275592,31.7965839 C231.790372,32.2009337 231.233276,32.5064379 230.604287,32.7131056 C229.975299,32.9197733 229.323856,33.0231056 228.649939,33.0231056 Z M240.745891,18.7631056 C241.617489,18.7631056 242.421684,18.9023796 243.158499,19.1809317 C243.895315,19.4594838 244.528787,19.8660739 245.058934,20.4007143 C245.589082,20.9353546 246.004657,21.5912901 246.305673,22.3685404 C246.606689,23.1457906 246.757195,24.0331006 246.757195,25.0304969 C246.757195,25.5336878 246.703283,25.8728873 246.595456,26.0481056 C246.487629,26.2233239 246.280965,26.3109317 245.975456,26.3109317 L237.41676,26.3109317 C237.470674,27.0207903 237.596469,27.634045 237.794152,28.1507143 C237.991834,28.6673835 238.252411,29.0941909 238.575891,29.4311491 C238.899371,29.7681073 239.283497,30.019699 239.728282,30.1859317 C240.173067,30.3521644 240.665018,30.4352795 241.204152,30.4352795 C241.743285,30.4352795 242.20828,30.3723816 242.599152,30.2465839 C242.990023,30.1207861 243.331469,29.9815122 243.623499,29.8287578 C243.91553,29.6760034 244.171614,29.5367294 244.39176,29.4109317 C244.611906,29.2851339 244.82531,29.222236 245.031978,29.222236 C245.31053,29.222236 245.517194,29.3255683 245.651978,29.532236 L246.608934,30.7452795 C246.240526,31.176586 245.827197,31.5382491 245.368934,31.8302795 C244.910671,32.1223099 244.432197,32.3559308 243.933499,32.5311491 C243.434801,32.7063673 242.927125,32.8299168 242.410456,32.9018012 C241.893787,32.9736857 241.39285,33.0096273 240.90763,33.0096273 C239.946176,33.0096273 239.052127,32.8501362 238.225456,32.5311491 C237.398785,32.212162 236.679952,31.7404276 236.068934,31.1159317 C235.457917,30.4914358 234.977197,29.7186899 234.62676,28.7976708 C234.276324,27.8766517 234.101108,26.8096334 234.101108,25.5965839 C234.101108,24.6531009 234.25386,23.7657909 234.559369,22.9346273 C234.864878,22.1034638 235.302917,21.3801377 235.873499,20.7646273 C236.444082,20.149117 237.140452,19.6616581 237.96263,19.302236 C238.784808,18.9428139 239.712552,18.7631056 240.745891,18.7631056 Z M240.813282,21.1487578 C239.842842,21.1487578 239.083575,21.422813 238.535456,21.9709317 C237.987337,22.5190504 237.636906,23.296289 237.484152,24.3026708 L243.765021,24.3026708 C243.765021,23.8713643 243.70437,23.4647742 243.583065,23.0828882 C243.46176,22.7010022 243.279805,22.3662954 243.037195,22.0787578 C242.794585,21.7912201 242.486835,21.5643383 242.113934,21.3981056 C241.741034,21.2318729 241.307487,21.1487578 240.813282,21.1487578 Z" id="rchitectural-Elite"></path>
                </g>
            </g>
        </g>
    </g>
</svg>