<?xml version="1.0" encoding="UTF-8"?>
<svg width="80px" height="53px" viewBox="0 0 80 53" version="1.1" xmlns="http://www.w3.org/2000/svg" xmlns:xlink="http://www.w3.org/1999/xlink">
    <!-- Generator: Sketch 42 (36781) - http://www.bohemiancoding.com/sketch -->
    <title>Icon / Monitor</title>
    <desc>Created with Sketch.</desc>
    <defs></defs>
    <g id="Home-Page" stroke="none" stroke-width="1" fill="none" fill-rule="evenodd">
        <g id="Home" transform="translate(-1160.000000, -1901.000000)" fill="#FFFFFF">
            <g id="Channel" transform="translate(960.000000, 1845.000000)">
                <g id="Icon-/-Monitor" transform="translate(200.000000, 56.000000)">
                    <g id="Fill-1012">
                        <path d="M6.66666667,5.44604778 L73.3333333,5.44604778 L73.3333333,36.9953436 L6.66666667,36.9953436 L6.66666667,5.44604778 Z M75,0.187831817 L5,0.187831817 C2.24333333,0.187831817 0,1.95722149 0,4.13149379 L0,38.3098975 C0,40.4841698 2.24333333,42.2535595 5,42.2535595 L35,42.2535595 L35,46.3234187 C26.9033333,46.7151558 19.5033333,48.1059539 14.2266667,50.2907426 C13.41,50.6272684 13.0966667,51.421259 13.5233333,52.0627614 C13.95,52.7068929 14.9566667,52.954029 15.7733333,52.6175032 C21.5966667,50.2066112 30.32,48.8237004 39.6966667,48.8237004 C49.0766667,48.8237004 57.7966667,50.2066112 63.6233333,52.6175032 C63.87,52.7174093 64.1333333,52.7673623 64.3933333,52.7673623 C64.9966667,52.7673623 65.5766667,52.5123389 65.8733333,52.0627614 C66.3033333,51.421259 65.9866667,50.6272684 65.1733333,50.2907426 C60.0266667,48.158536 52.8566667,46.7913999 45,46.3575971 L45,42.2535595 L75,42.2535595 C77.7566667,42.2535595 80,40.4841698 80,38.3098975 L80,4.13149379 C80,1.95722149 77.7566667,0.187831817 75,0.187831817 L75,0.187831817 Z"></path>
                    </g>
                </g>
            </g>
        </g>
    </g>
</svg>