<?xml version="1.0" encoding="UTF-8"?>
<svg width="52px" height="53px" viewBox="0 0 52 53" version="1.1" xmlns="http://www.w3.org/2000/svg" xmlns:xlink="http://www.w3.org/1999/xlink">
    <!-- Generator: Sketch 42 (36781) - http://www.bohemiancoding.com/sketch -->
    <title>“</title>
    <desc>Created with Sketch.</desc>
    <defs></defs>
    <g id="Home-Page" stroke="none" stroke-width="1" fill="none" fill-rule="evenodd" opacity="0.200000018">
        <g id="Home" transform="translate(-120.000000, -1408.000000)" fill="#1C4895">
            <g id="Testimonial" transform="translate(0.000000, 1337.000000)">
                <g id="Testimonial-Panel">
                    <path d="M127.008,123.162 C124.321987,118.843312 122.518171,114.36669 121.5965,109.732 C120.674829,105.09731 120.608996,100.528523 121.399,96.0255 C122.189004,91.5224775 123.834821,87.1906875 126.3365,83.03 C128.838179,78.8693125 132.195646,75.1300166 136.409,71.812 L143.203,75.92 C143.835003,76.2886685 144.269499,76.7099976 144.5065,77.184 C144.743501,77.6580024 144.848833,78.1451642 144.8225,78.6455 C144.796167,79.1458358 144.677668,79.6329976 144.467,80.107 C144.256332,80.5810024 143.993002,80.9759984 143.677,81.292 C142.676328,82.4506725 141.662505,84.0701563 140.6355,86.1505 C139.608495,88.2308437 138.871169,90.60082 138.4235,93.2605 C137.975831,95.92018 137.988998,98.8036511 138.463,101.911 C138.937002,105.018349 140.174657,108.151984 142.176,111.312 C143.229339,112.944675 143.519002,114.379827 143.045,115.6175 C142.570998,116.855173 141.596674,117.710998 140.122,118.185 L127.008,123.162 Z M154.184,123.162 C151.497987,118.843312 149.694171,114.36669 148.7725,109.732 C147.850829,105.09731 147.784996,100.528523 148.575,96.0255 C149.365004,91.5224775 151.010821,87.1906875 153.5125,83.03 C156.014179,78.8693125 159.371646,75.1300166 163.585,71.812 L170.379,75.92 C171.011003,76.2886685 171.445499,76.7099976 171.6825,77.184 C171.919501,77.6580024 172.024833,78.1451642 171.9985,78.6455 C171.972167,79.1458358 171.853668,79.6329976 171.643,80.107 C171.432332,80.5810024 171.169002,80.9759984 170.853,81.292 C169.852328,82.4506725 168.838505,84.0701563 167.8115,86.1505 C166.784495,88.2308437 166.047169,90.60082 165.5995,93.2605 C165.151831,95.92018 165.164998,98.8036511 165.639,101.911 C166.113002,105.018349 167.350657,108.151984 169.352,111.312 C170.405339,112.944675 170.695002,114.379827 170.221,115.6175 C169.746998,116.855173 168.772674,117.710998 167.298,118.185 L154.184,123.162 Z" id="“"></path>
                </g>
            </g>
        </g>
    </g>
</svg>