<?xml version="1.0" encoding="UTF-8"?>
<svg width="52px" height="52px" viewBox="0 0 52 52" version="1.1" xmlns="http://www.w3.org/2000/svg" xmlns:xlink="http://www.w3.org/1999/xlink">
    <!-- Generator: Sketch 42 (36781) - http://www.bohemiancoding.com/sketch -->
    <title>Icon / Search</title>
    <desc>Created with Sketch.</desc>
    <defs></defs>
    <g id="Home-Page" stroke="none" stroke-width="1" fill="none" fill-rule="evenodd">
        <g id="Home" transform="translate(-214.000000, -1902.000000)" stroke="#FFFFFF" fill="#FFFFFF">
            <g id="Jobs" transform="translate(0.000000, 1845.000000)">
                <g id="Icon-/-Search" transform="translate(215.000000, 58.000000)">
                    <g id="Fill-199">
                        <path d="M18.7500953,4.16662293 C26.7897195,4.16662293 33.3335028,10.7082209 33.3335028,18.7498032 C33.3335028,26.7893021 26.7897195,33.3329835 18.7500953,33.3329835 C10.7083878,33.3329835 4.16668785,26.7893021 4.16668785,18.7498032 C4.16668785,10.7082209 10.7083878,4.16662293 18.7500953,4.16662293 M18.7500953,37.4996064 C23.1897012,37.4996064 27.2688886,35.9392061 30.4855716,33.3496499 L46.4398194,49.3869816 C47.2502402,50.2015564 48.5669135,50.205723 49.3856677,49.3911482 C50.2023385,48.5807401 50.2044219,47.2620039 49.3940011,46.4453458 L33.4189199,30.3913477 C35.9668495,27.1913812 37.5001906,23.1476737 37.5001906,18.7498032 C37.5001906,8.41032839 29.0897312,0 18.7500953,0 C8.41045942,0 0,8.41032839 0,18.7498032 C0,29.0871947 8.41045942,37.4996064 18.7500953,37.4996064" stroke-width="2"></path>
                    </g>
                </g>
            </g>
        </g>
    </g>
</svg>