<?xml version="1.0" encoding="UTF-8"?>
<svg width="65px" height="61px" viewBox="0 0 65 61" version="1.1" xmlns="http://www.w3.org/2000/svg" xmlns:xlink="http://www.w3.org/1999/xlink">
    <!-- Generator: Sketch 42 (36781) - http://www.bohemiancoding.com/sketch -->
    <title>Icon / Speech </title>
    <desc>Created with Sketch.</desc>
    <defs></defs>
    <g id="Home-Page" stroke="none" stroke-width="1" fill="none" fill-rule="evenodd">
        <g id="Home" transform="translate(-688.000000, -1897.000000)" stroke="#FFFFFF">
            <g id="Blog" transform="translate(480.000000, 1845.000000)">
                <g id="Icon-/-Speech-" transform="translate(210.000000, 54.000000)">
                    <g id="Fill-864">
                        <path d="M43.2083333,28.1810418 L19.0625,28.1810418 C18.361,28.1810418 17.7916667,27.6071734 17.7916667,26.9000854 C17.7916667,26.1929974 18.361,25.6191289 19.0625,25.6191289 L43.2083333,25.6191289 C43.9098333,25.6191289 44.4791667,26.1929974 44.4791667,26.9000854 C44.4791667,27.6071734 43.9098333,28.1810418 43.2083333,28.1810418 M43.2083333,35.8667805 L19.0625,35.8667805 C18.361,35.8667805 17.7916667,35.292912 17.7916667,34.5858241 C17.7916667,33.8787361 18.361,33.3048676 19.0625,33.3048676 L43.2083333,33.3048676 C43.9098333,33.3048676 44.4791667,33.8787361 44.4791667,34.5858241 C44.4791667,35.292912 43.9098333,35.8667805 43.2083333,35.8667805 M19.0625,17.9333903 L35.5833333,17.9333903 C36.2848333,17.9333903 36.8541667,18.5072588 36.8541667,19.2143467 C36.8541667,19.9214347 36.2848333,20.4953032 35.5833333,20.4953032 L19.0625,20.4953032 C18.361,20.4953032 17.7916667,19.9214347 17.7916667,19.2143467 C17.7916667,18.5072588 18.361,17.9333903 19.0625,17.9333903 M30.5,0 C13.6817917,0 0,11.3595218 0,25.3193851 C0,31.911187 2.99154167,38.0905209 8.45104167,42.8198121 L2.325625,55.1451751 C2.08416667,55.6345004 2.173125,56.2186166 2.54929167,56.6105892 C2.79583333,56.8642186 3.12625,57 3.46175,57 C3.64475,57 3.82520833,56.9615713 3.99804167,56.8795901 L20.35875,49.206661 C23.6095417,50.1545687 27.015375,50.6362084 30.5,50.6362084 C47.3182083,50.6362084 61,39.2792485 61,25.3193851 C61,11.3595218 47.3182083,0 30.5,0" stroke-width="3"></path>
                    </g>
                </g>
            </g>
        </g>
    </g>
</svg>