<svg width="31" height="32" viewBox="0 0 31 32" xmlns="http://www.w3.org/2000/svg"><title>Icon / Social / Twitter</title><path d="M25.714 10.397c-.75.335-1.56.563-2.43.683.91-.535 1.533-1.32 1.868-2.35-.87.51-1.768.85-2.692 1.024-.817-.883-1.842-1.325-3.074-1.325-1.165 0-2.16.41-2.983 1.234-.824.824-1.236 1.818-1.236 2.983 0 .39.034.71.1.965-1.727-.094-3.347-.53-4.86-1.306-1.514-.777-2.8-1.815-3.858-3.114-.39.67-.583 1.38-.583 2.13 0 1.526.61 2.698 1.828 3.515-.63-.013-1.3-.187-2.01-.522v.04c0 1.004.336 1.898 1.005 2.682.67.783 1.493 1.27 2.47 1.456-.387.107-.73.16-1.023.16-.175 0-.436-.026-.784-.08.28.844.78 1.54 1.497 2.09.716.55 1.53.83 2.44.844-1.553 1.205-3.3 1.808-5.243 1.808-.348 0-.683-.02-1.004-.06 1.982 1.258 4.138 1.888 6.47 1.888 1.5 0 2.905-.238 4.217-.713 1.313-.476 2.438-1.112 3.375-1.91.938-.796 1.745-1.713 2.42-2.75.677-1.04 1.18-2.124 1.508-3.255.328-1.132.492-2.26.492-3.386 0-.242-.007-.422-.02-.543.844-.603 1.547-1.333 2.11-2.19zM30.857 6.5v19.286c0 1.593-.566 2.956-1.697 4.088-1.132 1.132-2.495 1.697-4.09 1.697H5.787c-1.594 0-2.957-.564-4.088-1.696C.566 28.742 0 27.38 0 25.786V6.5c0-1.594.566-2.956 1.698-4.088C2.828 1.28 4.192.714 5.786.714H25.07c1.595 0 2.958.566 4.09 1.698 1.13 1.132 1.697 2.494 1.697 4.088z" fill="#55ACEE" fill-rule="evenodd"/></svg>