<?xml version="1.0" encoding="UTF-8"?>
<svg width="24px" height="24px" viewBox="0 0 24 24" version="1.1" xmlns="http://www.w3.org/2000/svg" xmlns:xlink="http://www.w3.org/1999/xlink">
    <!-- Generator: Sketch 42 (36781) - http://www.bohemiancoding.com/sketch -->
    <title>Icon / Upload</title>
    <desc>Created with Sketch.</desc>
    <defs></defs>
    <g id="Home-Page" stroke="none" stroke-width="1" fill="none" fill-rule="evenodd">
        <g id="Home" transform="translate(-641.000000, -426.000000)" fill="#FFFFFF">
            <g id="Hero">
                <g id="Upload-CV" transform="translate(641.000000, 426.000000)">
                    <g id="Icon-/-Upload">
                        <g>
                            <path d="M23,16.7178 C22.447,16.7178 22,17.1658 22,17.7178 L22,19.6308 C22,20.6748 21.119,21.9998 20.13,21.9998 L3.869,21.9998 C2.88,21.9998 2,20.6748 2,19.6308 L2,17.7178 C2,17.1658 1.552,16.7178 1,16.7178 C0.447,16.7178 0,17.1658 0,17.7178 L0,19.6308 C0,21.6938 1.654,23.9998 3.869,23.9998 L20.13,23.9998 C22.345,23.9998 24,21.6938 24,19.6308 L24,17.7178 C24,17.1658 23.552,16.7178 23,16.7178" id="Fill-196"></path>
                            <path d="M5.207,8.708 L10.5,3.415 L10.5,17.609 C10.5,18.162 10.947,18.609 11.5,18.609 C12.052,18.609 12.5,18.162 12.5,17.609 L12.5,3.415 L17.793,8.708 C17.987,8.903 18.244,9 18.5,9 C18.756,9 19.012,8.903 19.207,8.708 C19.598,8.316 19.598,7.684 19.207,7.294 L12.207,0.294 C11.8,-0.113 11.152,-0.074 10.792,0.294 L3.793,7.294 C3.402,7.684 3.402,8.316 3.793,8.708 C4.183,9.099 4.816,9.099 5.207,8.708" id="Fill-197"></path>
                        </g>
                    </g>
                </g>
            </g>
        </g>
    </g>
</svg>