<svg width="31" height="32" viewBox="0 0 31 32" xmlns="http://www.w3.org/2000/svg"><title>Icon / Social / YouTube</title><path d="M18.462 24.32v-3.155c0-.67-.194-1.004-.583-1.004-.228 0-.45.108-.663.322v4.5c.214.214.435.322.662.322.388 0 .582-.33.582-.985zm3.696-2.452h1.326v-.683c0-.683-.22-1.024-.663-1.024-.44 0-.662.342-.662 1.025v.683zm-11.47-5.343v1.406H9.08v8.5H7.594v-8.5H6.027v-1.405h4.66zm4.037 2.53v7.374H13.38v-.805c-.523.603-1.032.904-1.527.904-.442 0-.724-.188-.844-.563-.08-.215-.122-.576-.122-1.085v-5.826h1.326v5.424c0 .32.007.495.02.522.014.2.114.302.302.302.268 0 .55-.208.843-.623v-5.624h1.345zm5.063 2.23v2.934c0 .695-.047 1.184-.14 1.465-.16.563-.516.844-1.065.844-.47 0-.925-.276-1.366-.825v.724H15.87v-9.905h1.347v3.234c.428-.537.883-.805 1.366-.805.55 0 .904.282 1.064.844.094.28.14.776.14 1.486zm5.042 2.592v.18c0 .39-.013.677-.04.865-.04.295-.14.562-.3.803-.363.536-.898.804-1.608.804-.697 0-1.24-.255-1.628-.764-.28-.362-.42-.938-.42-1.728v-2.592c0-.79.133-1.366.4-1.727.39-.51.924-.765 1.608-.765.683 0 1.205.255 1.566.764.282.374.422.95.422 1.726v1.527h-2.672v1.306c0 .682.228 1.024.684 1.024.32 0 .522-.175.602-.523l.01-.14c.007-.08.01-.19.01-.33v-.433h1.366zM15.77 7.324v3.134c0 .683-.214 1.024-.643 1.024-.428 0-.643-.34-.643-1.024V7.324c0-.697.215-1.045.643-1.045.43 0 .643.347.643 1.044zm10.708 14.323c0-2.37-.128-4.11-.382-5.223-.134-.59-.422-1.08-.864-1.476-.442-.396-.95-.627-1.527-.694-1.82-.2-4.58-.3-8.276-.3-3.684 0-6.437.1-8.258.3-.59.067-1.102.298-1.537.694-.435.395-.72.887-.854 1.476-.267 1.165-.4 2.906-.4 5.223 0 2.357.133 4.1.4 5.224.135.576.42 1.065.855 1.467.435.402.94.636 1.517.703 1.835.2 4.594.302 8.277.302 3.682 0 6.44-.1 8.275-.302.576-.067 1.082-.3 1.517-.703.435-.402.72-.89.854-1.466.268-1.124.402-2.866.402-5.223zM11.31 8.57l1.808-5.947h-1.506L10.587 6.54 9.522 2.623H7.955l.482 1.386c.215.615.37 1.077.463 1.385.468 1.38.776 2.438.924 3.174v4.037h1.486V8.57zm5.806 1.626v-2.61c0-.778-.14-1.36-.422-1.75-.388-.508-.91-.762-1.567-.762-.683 0-1.205.254-1.567.763-.28.388-.422.97-.422 1.748v2.61c0 .778.14 1.36.422 1.75.362.508.884.763 1.567.763.656 0 1.18-.255 1.567-.764.28-.36.422-.944.422-1.748zm3.636 2.41h1.346V5.175h-1.346v5.685c-.294.415-.576.622-.844.622-.2 0-.308-.107-.32-.32-.014-.028-.02-.202-.02-.524V5.174H18.22v5.886c0 .496.04.864.122 1.105.147.362.435.543.863.543.483 0 .998-.302 1.547-.904v.803zM30.857 6.5v19.286c0 1.593-.566 2.956-1.697 4.088-1.132 1.132-2.495 1.697-4.09 1.697H5.787c-1.594 0-2.957-.564-4.088-1.696C.566 28.742 0 27.38 0 25.786V6.5c0-1.594.566-2.956 1.698-4.088C2.828 1.28 4.192.714 5.786.714H25.07c1.595 0 2.958.566 4.09 1.698 1.13 1.132 1.697 2.494 1.697 4.088z" fill="#B00" fill-rule="evenodd"/></svg>